<?xml version="1.0" encoding="UTF-8"?>
<svg version="1.1" xmlns="http://www.w3.org/2000/svg" width="512" height="512">
<path d="M0 0 C14.61436206 11.42062872 23.17282788 26.61013781 25.94921875 44.89453125 C27.74370357 60.80614344 23.66375813 75.05244346 15.94921875 88.89453125 C15.27542207 90.22427568 14.60586067 91.55623248 13.94921875 92.89453125 C14.8 92.99636719 15.65078125 93.09820312 16.52734375 93.203125 C31.47346833 96.22306113 45.77349736 108.14206693 54.05224609 120.54736328 C64.19045158 136.80010338 67.77423221 155.29286737 63.86572266 174.13891602 C61.15036111 185.50828151 56.29163497 196.55211503 47.94921875 204.89453125 C45.10838234 206.31494946 43.09444597 206.20905397 39.94921875 205.89453125 C37.57421875 204.33203125 37.57421875 204.33203125 35.94921875 201.89453125 C35.36255693 196.19163259 36.46710521 193.36056699 39.69921875 188.70703125 C47.89644814 176.22632116 50.67391474 162.58051122 47.73046875 147.86328125 C44.00386168 133.70217439 36.31553509 121.91986929 23.94921875 113.89453125 C11.51682237 107.18172218 -0.67777499 105.35429424 -14.67578125 106.25 C-17.05078125 105.89453125 -17.05078125 105.89453125 -19.25 104.41796875 C-21.75950503 100.90139554 -22.161006 97.53485186 -22.86328125 93.33203125 C-25.06361009 82.15570448 -29.30831284 74.0266711 -38.80078125 67.32421875 C-47.2542397 61.95275036 -56.85161762 58.4828823 -67.05078125 59.89453125 C-75.46682099 61.77903888 -82.19439633 64.70030025 -89.05078125 69.89453125 C-92.81577706 72.40452845 -94.59371731 72.50929869 -99.05078125 71.89453125 C-101.09753734 69.89894406 -102.46492608 68.21854724 -104.05078125 65.89453125 C-114.03645595 52.28442648 -124.89607111 44.49465037 -141.796875 41.359375 C-156.18520158 39.30389977 -169.72955216 43.38971464 -181.73828125 51.45703125 C-192.24529484 59.53818311 -200.05929473 71.66396241 -202.05078125 84.89453125 C-202.23673227 88.6961966 -202.36622943 92.49619272 -202.4765625 96.30078125 C-203.14856591 100.50651689 -203.81259498 102.12911001 -207.05078125 104.89453125 C-209.84570237 105.79058423 -212.63968487 106.08729073 -215.55078125 106.39453125 C-230.71692188 108.46852038 -242.87445674 114.44376882 -252.96875 126.09375 C-256.98220686 131.49271542 -259.92594167 137.5200125 -262.05078125 143.89453125 C-260.97147339 143.87096558 -260.97147339 143.87096558 -259.87036133 143.84692383 C-233.48409464 143.3463599 -233.48409464 143.3463599 -223.05078125 146.89453125 C-222.60089844 146.03472656 -222.15101563 145.17492187 -221.6875 144.2890625 C-210.4746109 123.44176895 -194.58352699 109.84186466 -172.3515625 101.5078125 C-151.20184315 95.20930674 -128.18305183 97.64614778 -108.71679688 107.68725586 C-88.50596989 118.62975957 -75.08060114 135.18784592 -68.05859375 156.97265625 C-65.79064394 164.87808129 -64.88310548 172.50617004 -64.92578125 180.70703125 C-64.92191406 181.46951172 -64.91804688 182.23199219 -64.9140625 183.01757812 C-64.92400663 188.640982 -64.92400663 188.640982 -66.05078125 190.89453125 C-64.97828125 190.93578125 -63.90578125 190.97703125 -62.80078125 191.01953125 C-51.29864964 192.52334351 -41.47494962 200.33784421 -34.2734375 209.04296875 C-33.05078125 210.89453125 -33.05078125 210.89453125 -33.05078125 212.89453125 C-27.80366228 212.7754439 -22.55670078 212.65114823 -17.30981445 212.5222168 C-15.52827223 212.47915009 -13.74669618 212.43745779 -11.96508789 212.3972168 C-9.39068448 212.33882232 -6.81644693 212.27533495 -4.2421875 212.2109375 C-3.06505943 212.18586876 -3.06505943 212.18586876 -1.864151 212.16029358 C2.81910814 212.03740507 7.36861285 211.65139578 12.00453186 210.96177673 C13.94921875 210.89453125 13.94921875 210.89453125 17.01171875 212.33203125 C19.33495216 215.4046948 19.70577915 217.20930514 19.41015625 220.99609375 C18.94921875 222.89453125 18.94921875 222.89453125 17.19921875 225.26953125 C8.0832516 229.82751483 -2.85592165 229.15448237 -12.80078125 229.01953125 C-14.08210938 229.01050781 -15.3634375 229.00148438 -16.68359375 228.9921875 C-19.80619346 228.96888452 -22.9283815 228.93617179 -26.05078125 228.89453125 C-26.004375 229.9825 -25.95796875 231.07046875 -25.91015625 232.19140625 C-25.4535224 247.39748706 -28.7088291 259.47514497 -39.046875 271.1484375 C-47.87943932 279.6892841 -58.78326474 284.04470356 -70.91647339 284.04170227 C-72.11347278 284.0472173 -72.11347278 284.0472173 -73.33465397 284.05284375 C-76.0120089 284.06386752 -78.689325 284.06772229 -81.36669922 284.0715332 C-83.28543724 284.07779909 -85.20417406 284.084446 -87.12290955 284.09144592 C-93.42958736 284.11248261 -99.7362654 284.12285138 -106.04296875 284.1328125 C-108.21698138 284.1368609 -110.39099388 284.14097785 -112.56500626 284.14516258 C-122.78455365 284.16421733 -133.00409383 284.17844496 -143.22365558 284.18677455 C-155.00116604 284.19653332 -166.77848788 284.22281613 -178.55593193 284.26327544 C-187.66953335 284.29350314 -196.78308094 284.30824993 -205.8967315 284.31155556 C-211.33431438 284.31389943 -216.77169583 284.3227726 -222.2092247 284.34801674 C-227.33270162 284.37141748 -232.45584622 284.37548268 -237.57936287 284.36525536 C-239.45051369 284.36476271 -241.32168152 284.37100221 -243.19278145 284.3848114 C-265.10768813 284.53737656 -283.03502907 278.65264899 -298.85546875 263.1171875 C-299.57992187 262.38371094 -300.304375 261.65023438 -301.05078125 260.89453125 C-302.79641485 259.14889765 -305.21925456 259.75151954 -307.59277344 259.73681641 C-308.77780457 259.72655426 -309.96283569 259.71629211 -311.18377686 259.70571899 C-312.47535706 259.69841766 -313.76693726 259.69111633 -315.09765625 259.68359375 C-317.1121418 259.66271371 -319.12662736 259.64181631 -321.14110184 259.61989403 C-326.12524868 259.56664711 -331.10940471 259.5225673 -336.09375 259.49316406 C-339.5575103 259.47217848 -343.02087778 259.43683862 -346.48441315 259.39240646 C-348.4435236 259.37140603 -350.4027828 259.36620202 -352.36199951 259.36123657 C-354.15845917 259.33638687 -354.15845917 259.33638687 -355.99121094 259.31103516 C-357.04298523 259.3029483 -358.09475952 259.29486145 -359.17840576 259.28652954 C-362.76739409 258.7967338 -365.47049336 257.47481914 -368.05078125 254.89453125 C-368.61459612 249.16241344 -368.61459612 249.16241344 -368.05078125 246.89453125 C-365.84703129 244.35765973 -364.01395408 243.0512264 -360.66497803 242.50639343 C-357.6462734 242.3345717 -354.64861926 242.28863503 -351.625 242.28515625 C-350.52227249 242.26862 -349.41954498 242.25208374 -348.28340149 242.23504639 C-344.76830489 242.18653975 -341.25364105 242.16518864 -337.73828125 242.14453125 C-335.35219174 242.11637394 -332.96612241 242.08644685 -330.58007812 242.0546875 C-324.73705779 241.98078 -318.8941593 241.92915301 -313.05078125 241.89453125 C-313.32792969 241.02570313 -313.60507812 240.156875 -313.890625 239.26171875 C-314.25285156 238.10929688 -314.61507812 236.956875 -314.98828125 235.76953125 C-315.34792969 234.63257813 -315.70757812 233.495625 -316.078125 232.32421875 C-321.32191335 213.83407349 -317.8709847 194.75735899 -308.96484375 178.08203125 C-302.52028265 167.3498642 -293.38662359 157.54886028 -282.05078125 151.89453125 C-281.39078125 151.89453125 -280.73078125 151.89453125 -280.05078125 151.89453125 C-279.98890625 150.69828125 -279.92703125 149.50203125 -279.86328125 148.26953125 C-277.79635321 130.04037421 -266.86562503 114.96119487 -253.12109375 103.48046875 C-243.40221987 96.03544461 -232.18240576 91.62496235 -220.05078125 89.89453125 C-219.67953125 88.10015625 -219.67953125 88.10015625 -219.30078125 86.26953125 C-214.6811184 65.86602034 -206.46855054 47.74524536 -188.38183594 35.79150391 C-171.62775286 25.45260437 -152.9019211 21.94371941 -133.5625 26.02880859 C-122.24047082 28.79061426 -112.48786636 34.17418276 -103.05078125 40.89453125 C-102.98890625 39.82203125 -102.92703125 38.74953125 -102.86328125 37.64453125 C-100.9783772 23.20209077 -91.096235 9.92270153 -80.05078125 0.89453125 C-55.01670156 -15.77508105 -25.24465711 -17.42236899 0 0 Z M-78.05078125 20.89453125 C-85.00774838 29.97396293 -88.15451858 38.60162157 -89.05078125 49.89453125 C-88.49390625 49.70117188 -87.93703125 49.5078125 -87.36328125 49.30859375 C-86.21859375 48.91800781 -86.21859375 48.91800781 -85.05078125 48.51953125 C-84.30828125 48.26429687 -83.56578125 48.0090625 -82.80078125 47.74609375 C-66.99933791 42.85303317 -50.96454467 43.29999028 -35.83984375 50.40234375 C-21.93647543 57.93187571 -13.29211121 69.09374956 -8.61328125 84.14453125 C-8.07683415 86.0568866 -7.54998842 87.97211853 -7.05078125 89.89453125 C1.86054359 83.12192437 8.19392531 73.07297896 9.94921875 61.89453125 C11.16866879 45.66517817 8.29654224 32.60126952 -1.875 19.5546875 C-10.01074023 10.48914839 -22.83850902 3.86547162 -35.05078125 2.89453125 C-35.75976562 2.82621094 -36.46875 2.75789063 -37.19921875 2.6875 C-53.16965084 1.90915764 -67.44160283 9.38167494 -78.05078125 20.89453125 Z M-199.17578125 138.25 C-203.37234123 143.36003532 -206.32895336 148.88644111 -209.05078125 154.89453125 C-208.33792969 155.31863281 -207.62507813 155.74273437 -206.890625 156.1796875 C-193.49893291 164.38052182 -185.17462975 174.48885886 -181.05078125 189.89453125 C-179.30777871 199.78002743 -179.30777871 199.78002743 -182.05078125 203.89453125 C-186.09085168 204.79232468 -189.09954397 205.04334914 -193.05078125 203.89453125 C-193.19773437 203.08371094 -193.3446875 202.27289063 -193.49609375 201.4375 C-196.31996786 187.49665023 -202.10356999 177.22274089 -213.83984375 168.921875 C-227.62665684 160.35513494 -244.04021828 156.44762088 -260.05078125 160.01953125 C-275.78819477 164.42189268 -287.339947 173.16016734 -296.05078125 186.89453125 C-302.99672261 199.80620814 -305.01230497 214.52385252 -300.96875 228.68359375 C-298.50562307 236.33755018 -298.50562307 236.33755018 -294.05078125 242.89453125 C-291.74500393 243.49216886 -291.74500393 243.49216886 -289.1237793 243.39624023 C-288.12231369 243.40562119 -287.12084808 243.41500214 -286.08903503 243.42466736 C-285.00777847 243.41343338 -283.92652191 243.4021994 -282.8125 243.390625 C-281.14221489 243.39280785 -281.14221489 243.39280785 -279.43818665 243.39503479 C-277.08026518 243.39337359 -274.72233311 243.38178783 -272.36450195 243.36108398 C-268.76271181 243.33222698 -265.16240192 243.34045203 -261.56054688 243.35351562 C-259.26952412 243.34727529 -256.978506 243.33888206 -254.6875 243.328125 C-253.61231613 243.33106064 -252.53713226 243.33399628 -251.42936707 243.33702087 C-244.21923035 243.24655433 -239.68067813 242.40488736 -234.30078125 237.26953125 C-231.443903 233.52219744 -230.24162372 229.58607521 -230.05078125 224.89453125 C-230.76641635 220.35675416 -232.48734914 217.06601773 -235.92578125 214.01953125 C-241.08095181 210.51401527 -244.74646389 209.24236049 -251.05078125 209.89453125 C-255.07144267 211.35057325 -257.50002114 213.05889522 -259.86328125 216.64453125 C-260.79469431 219.19366172 -261.49278186 221.57931037 -262.11328125 224.20703125 C-262.42265625 225.42390625 -262.73203125 226.64078125 -263.05078125 227.89453125 C-266.10062121 229.41945123 -268.69311815 229.13015673 -272.05078125 228.89453125 C-274.23834622 227.31182296 -274.95090664 226.39300452 -275.484375 223.73046875 C-275.49681659 215.89226476 -273.48151781 209.8487577 -268.73828125 203.58203125 C-261.77925854 196.62300854 -254.6738916 195.58943398 -245.19335938 195.57983398 C-236.20864575 195.75191202 -230.35036055 198.86844882 -223.84375 204.89453125 C-217.1203963 212.3942199 -215.73039629 219.78961571 -215.83984375 229.57421875 C-216.34829045 237.5775464 -219.35646295 244.2121758 -225.05078125 249.89453125 C-236.16854972 258.4219353 -248.22898458 258.2533702 -261.61328125 258.51953125 C-263.21030608 258.55778334 -264.80731186 258.59683907 -266.40429688 258.63671875 C-270.28630076 258.73192806 -274.16840081 258.81624077 -278.05078125 258.89453125 C-275.55096503 261.51340781 -273.29704215 262.9383338 -269.98828125 264.45703125 C-268.67150391 265.07771484 -268.67150391 265.07771484 -267.328125 265.7109375 C-257.09740122 269.40570425 -246.74560255 269.19214528 -236.01586914 269.18505859 C-234.19975002 269.19105114 -232.38363343 269.19785835 -230.56752014 269.20541382 C-225.65842561 269.22300334 -220.74940091 269.22776611 -215.84027791 269.22904539 C-212.76833774 269.23047112 -209.69641509 269.2347486 -206.62447929 269.24003983 C-195.89392859 269.2585141 -185.16342741 269.26671337 -174.43286133 269.26513672 C-164.45123107 269.2639348 -154.46981685 269.2850537 -144.48824126 269.31662405 C-135.89854422 269.34281814 -127.30891765 269.35350276 -118.719181 269.3522259 C-113.59757685 269.35171736 -108.47616505 269.35734153 -103.35460091 269.378582 C-98.53718032 269.39801823 -93.72013462 269.39805215 -88.90270042 269.38354874 C-87.14155654 269.38146648 -85.38038884 269.38612651 -83.61928558 269.39826965 C-71.26925814 269.47786748 -60.20415896 268.88163242 -50.8359375 259.87890625 C-44.62930607 252.97963105 -41.596186 246.7849026 -40.73828125 237.51953125 C-41.6370572 227.09373025 -45.76045361 219.70051978 -53.36328125 212.64453125 C-60.03643491 207.3118364 -66.61356864 205.06065107 -75.1953125 205.2890625 C-79.32792164 206.16533393 -81.2990759 208.36145726 -84.171875 211.32421875 C-86.36742545 213.15916943 -87.5326362 213.44760923 -90.36328125 213.51953125 C-94.05078125 212.89453125 -94.05078125 212.89453125 -96.05078125 211.83203125 C-97.69221762 208.65174828 -97.52810438 206.41478934 -97.05078125 202.89453125 C-93.81122799 197.49527582 -89.84057059 195.49355019 -84.16015625 192.97265625 C-81.89550525 192.0780602 -81.89550525 192.0780602 -81.05078125 189.89453125 C-79.29857097 171.67154433 -82.76930437 154.85694661 -94.1875 140.140625 C-96.39018246 137.62272446 -98.67351067 135.24750264 -101.05078125 132.89453125 C-101.71464844 132.19714844 -102.37851562 131.49976563 -103.0625 130.78125 C-114.93435757 119.13552305 -131.09599823 114.02130647 -147.42578125 113.45703125 C-168.27525848 113.97556747 -185.35632724 122.93174491 -199.17578125 138.25 Z " fill="#838D83" transform="translate(400.05078125,73.10546875)"/>
<path d="M0 0 C7.88698988 6.48768522 13.03496165 13.47902462 14.1328125 23.875 C14.44866118 34.31906303 12.78656593 41.8020569 6.25 50 C-0.64072957 57.27784921 -9.51509574 60.97268457 -19.44186497 61.38142776 C-21.17154719 61.38588976 -21.17154719 61.38588976 -22.93617249 61.39044189 C-23.58297248 61.39341302 -24.22977247 61.39638414 -24.89617246 61.3994453 C-27.04936598 61.40807189 -29.20250351 61.40963534 -31.35571289 61.41113281 C-32.90511696 61.41576503 -34.45451989 61.42079023 -36.00392151 61.42617798 C-40.20211473 61.43925939 -44.40029199 61.44573782 -48.5985024 61.45018864 C-51.22211308 61.45312439 -53.84571943 61.45723 -56.46932793 61.46169281 C-64.68071886 61.4753524 -72.89209987 61.48502832 -81.10350138 61.4888947 C-90.57862883 61.49338108 -100.05361242 61.51096223 -109.52869612 61.5398953 C-116.85792463 61.56149892 -124.1871126 61.57159817 -131.51637262 61.57293582 C-135.89223326 61.57398418 -140.26795838 61.57989943 -144.64378548 61.59775543 C-148.75686045 61.61421481 -152.86969767 61.61640211 -156.98279381 61.60761642 C-158.49167136 61.60684508 -160.0005616 61.61120162 -161.50940704 61.62107468 C-163.57015892 61.6337683 -165.63006519 61.62793259 -167.69081116 61.61749268 C-168.84355561 61.61895924 -169.99630007 61.6204258 -171.18397617 61.6219368 C-174.61222763 61.20605847 -176.49591076 60.29972561 -179.25 58.25 C-180.69430855 55.36138291 -180.62688506 53.45352299 -180.25 50.25 C-177.71601735 47.05373076 -176.20886746 45.44219184 -172.15832806 44.63031673 C-170.4109848 44.63396158 -170.4109848 44.63396158 -168.62834167 44.63768005 C-167.9763457 44.63214664 -167.32434972 44.62661323 -166.65259629 44.62091213 C-164.47502385 44.60836478 -162.29929395 44.63129033 -160.12182617 44.65405273 C-158.55772996 44.65214828 -156.99363511 44.64799168 -155.42955017 44.64175415 C-152.0643557 44.63296664 -148.69967705 44.63971235 -145.33452415 44.65841484 C-140.00960934 44.68752176 -134.68513829 44.67970942 -129.36018372 44.66651917 C-119.01368015 44.64585434 -108.66739132 44.66145038 -98.32089996 44.68199158 C-85.16210408 44.70713003 -72.00342894 44.71995618 -58.84462911 44.69203526 C-53.55545338 44.68209897 -48.26681115 44.69216988 -42.97769392 44.71794307 C-39.68095116 44.73014749 -36.38437349 44.72589531 -33.0876255 44.71736526 C-31.56387599 44.7168319 -30.04010572 44.72312253 -28.51641846 44.73690605 C-20.55394475 44.80541237 -14.05212567 44.82128752 -7.25 40.25 C-3.16502935 35.74605801 -2.00752697 31.21079543 -2.25 25.25 C-3.40811435 19.03627111 -6.11769604 15.77845897 -11.25 12.25 C-16.69612634 10.43462455 -22.86330308 10.35498865 -28.25 12.375 C-31.89710587 15.79416175 -33.17049022 19.6680748 -34.1875 24.4375 C-35.25 28.25 -35.25 28.25 -36.9375 30.3125 C-40.35958821 31.69983306 -42.72165331 31.14812461 -46.25 30.25 C-48.6443266 28.53341782 -49.18420175 27.61024543 -49.71875 24.68359375 C-49.80839644 16.08874088 -48.26691155 9.62158752 -42.34765625 3.1796875 C-30.58861462 -7.60883822 -13.31581257 -9.4499315 0 0 Z " fill="#347FCD" transform="translate(246.25,366.75)"/>
<path d="M0 0 C1.86713402 -0.01691895 1.86713402 -0.01691895 3.77198792 -0.03417969 C5.14892811 -0.02640243 6.525866 -0.01820976 7.90280151 -0.00964355 C9.35513511 -0.01506481 10.80746321 -0.02218749 12.25978088 -0.03088379 C16.20444148 -0.04912972 20.14868386 -0.04204203 24.09335184 -0.02936745 C28.22734606 -0.01923468 32.36130465 -0.02863497 36.49530029 -0.03491211 C43.44418756 -0.04219262 50.39290489 -0.03259543 57.34176636 -0.0135498 C65.35793154 0.00816845 73.37368895 0.00120616 81.38984406 -0.02085543 C88.28177902 -0.03905948 95.17359179 -0.04154185 102.06554306 -0.03110075 C106.17723819 -0.0248866 110.28874234 -0.02397151 114.40042496 -0.0372467 C118.27312141 -0.04887582 122.14529783 -0.04065214 126.01793861 -0.01766968 C127.43278328 -0.01241777 128.84767234 -0.0138355 130.26249886 -0.02272034 C141.61824235 -0.08740807 150.67128188 1.4877032 159.17184448 9.43762207 C166.20391262 17.71983565 167.77208468 26.96555362 166.92965698 37.50793457 C164.90894354 46.22378292 159.83332919 52.48059694 152.86715698 57.88293457 C144.40779052 62.5625841 133.66169268 63.17102623 124.28903198 60.85559082 C122.25288121 59.92168702 120.67193579 58.91259476 118.92965698 57.50793457 C118.30832886 57.02195801 117.68700073 56.53598145 117.04684448 56.03527832 C111.53019648 51.15339107 108.6515868 45.27118285 107.55075073 38.00793457 C107.36139596 34.29413771 107.53451636 32.15596518 109.49215698 28.94543457 C112.88483824 26.94462255 115.05679859 26.95466909 118.92965698 27.50793457 C122.65264458 29.78309366 123.27198989 32.48409385 124.30465698 36.50793457 C125.32116416 40.19345257 125.78854356 41.37010286 128.61715698 44.13293457 C133.27800992 46.06762824 137.17722554 46.5332427 141.89059448 44.77746582 C145.86601066 42.7226621 148.20949584 40.61720842 149.92965698 36.50793457 C151.39341083 30.86202689 150.83184349 27.56335623 147.92965698 22.50793457 C144.56447494 18.95019443 141.32623791 16.62444403 136.30716801 16.38044262 C135.2458488 16.37918534 134.18452959 16.37792807 133.09104919 16.37663269 C131.26345566 16.37062042 131.26345566 16.37062042 129.39894104 16.36448669 C128.04663084 16.36496178 126.69432066 16.36549789 125.3420105 16.36608887 C123.9195037 16.36305717 122.49699788 16.35953569 121.07449341 16.3555603 C118.01010086 16.34767251 114.94571994 16.34252688 111.88131905 16.33926964 C107.03663187 16.33336083 102.19201819 16.31682237 97.34736633 16.29792786 C95.6890841 16.29159058 94.03080182 16.28526495 92.37251949 16.27895069 C91.12686445 16.27420197 91.12686445 16.27420197 89.85604465 16.26935732 C78.5764772 16.22726699 67.29694424 16.19429446 56.01730347 16.18200684 C48.40937069 16.17363387 40.80162009 16.15117316 33.19377846 16.11265117 C29.1672088 16.0928673 25.14091162 16.08049363 21.11429024 16.08548546 C17.32779205 16.09012258 13.54181081 16.07637868 9.75541687 16.04847336 C8.3654748 16.04154613 6.97547944 16.04145151 5.58553886 16.04867363 C3.68877231 16.0575343 1.79193682 16.03955108 -0.10475159 16.02018738 C-1.16644782 16.01779902 -2.22814405 16.01541067 -3.3220129 16.01294994 C-6.78096077 15.37735605 -7.96573664 14.28302698 -10.07034302 11.50793457 C-10.57034302 8.00793457 -10.57034302 8.00793457 -10.07034302 4.50793457 C-7.05799922 0.51968261 -4.89818612 0.0068265 0 0 Z " fill="#4282BF" transform="translate(190.07034301757813,443.4920654296875)"/>
<path d="M0 0 C5.94679315 1.24690824 9.42348398 4.82990269 13.875 8.8125 C14.88175781 9.65296875 15.88851563 10.4934375 16.92578125 11.359375 C17.91964844 12.21015625 18.91351563 13.0609375 19.9375 13.9375 C20.85660156 14.72382812 21.77570313 15.51015625 22.72265625 16.3203125 C25.24767317 19.2440163 25.73440366 20.98515509 25.875 24.8125 C24.73720128 27.13981556 23.70659286 28.98090714 21.875 30.8125 C18.65464549 31.398019 16.9849707 31.59639706 13.875 30.8125 C10.16256007 28.19870083 7.09749439 24.99634378 3.875 21.8125 C2.02316984 20.26802754 0.16907821 18.72626168 -1.6875 17.1875 C-4.8109507 14.36409732 -6.02296426 13.0907793 -7.5 9.0625 C-6.88942559 3.7708551 -5.22328413 1.35805387 0 0 Z " fill="#BF984B" transform="translate(276.125,43.1875)"/>
<path d="M0 0 C3.15284933 2.6011007 3.9143163 4.12602628 4.3125 8.1875 C3.10163279 13.92975687 -2.08120103 17.94846752 -6 22 C-7.8489575 24.12065545 -9.67211222 26.26084726 -11.4921875 28.40625 C-13.83592237 30.88356562 -15.54535426 31.94196012 -18.9375 32.375 C-22 32 -22 32 -24.3125 30.3125 C-26.22678628 27.6892188 -26.92078375 26.2478662 -27 23 C-25.0317296 19.22016863 -22.57165798 16.24327789 -19.6875 13.125 C-16.91800686 10.10742523 -14.19158716 7.07815831 -11.5625 3.9375 C-7.83370263 -0.33697503 -5.6333408 -0.58275939 0 0 Z " fill="#EDA11F" transform="translate(439,35)"/>
<path d="M0 0 C1.13953125 -0.03738281 2.2790625 -0.07476562 3.453125 -0.11328125 C4.47792969 -0.15066406 5.50273437 -0.18804687 6.55859375 -0.2265625 C10.02985412 0.31942218 11.1658953 1.43072269 13.265625 4.19921875 C13.83999523 8.21981038 13.9555426 10.26290201 11.515625 13.57421875 C6.32731954 17.32132825 -0.50854516 16.64999255 -6.671875 16.94921875 C-7.75662109 17.01753906 -8.84136719 17.08585937 -9.95898438 17.15625 C-11.00763672 17.20652344 -12.05628906 17.25679687 -13.13671875 17.30859375 C-14.56745728 17.3854541 -14.56745728 17.3854541 -16.02709961 17.46386719 C-19.33361574 17.14064025 -21.11695359 16.22325768 -23.734375 14.19921875 C-24.67722254 10.74211111 -25.07499815 8.34495117 -24.046875 4.88671875 C-21.69880916 1.86777696 -19.26528359 1.26759823 -15.51953125 0.78515625 C-12.26015368 0.60046959 -9.00203457 0.41771279 -5.74023438 0.28271484 C-3.82616121 0.20303945 -1.91301052 0.10205391 0 0 Z " fill="#E29F29" transform="translate(466.734375,111.80078125)"/>
<path d="M0 0 C3.02872383 0.67431965 4.18734121 2.03938709 6.0703125 4.4609375 C7.05838594 8.38156223 6.96658887 12.42868137 7.0703125 16.4609375 C7.09609375 17.1720166 7.121875 17.8830957 7.1484375 18.61572266 C7.22693238 20.89747057 7.27827126 23.17824483 7.3203125 25.4609375 C7.3419043 26.19078857 7.36349609 26.92063965 7.38574219 27.67260742 C7.40463098 30.79833978 7.24420496 33.11315257 5.8359375 35.9296875 C3.03557056 38.35832432 0.7263843 38.01911644 -2.8359375 37.83984375 C-4.9296875 37.4609375 -4.9296875 37.4609375 -6.9296875 35.8984375 C-9.3486346 30.00225394 -9.24740072 23.14696516 -9.6171875 16.8359375 C-9.67712891 16.00320312 -9.73707031 15.17046875 -9.79882812 14.3125 C-10.05662126 9.87704554 -10.17263409 6.45690378 -7.9296875 2.4609375 C-5.36890985 -0.09984015 -3.50086147 0.14642386 0 0 Z " fill="#DE9D2D" transform="translate(355.9296875,6.5390625)"/>
<path d="M0 0 C0.88945313 -0.02384766 1.77890625 -0.04769531 2.6953125 -0.07226562 C7.26110865 -0.06204369 9.35871029 0.07606027 13.08984375 2.90625 C15 5.5625 15 5.5625 15.5625 8.625 C14.88178485 12.17984581 13.79927541 13.339546 11 15.5625 C7.63686091 17.24406955 3.88233413 16.78924377 0.1875 16.8125 C-1.02389648 16.8434375 -1.02389648 16.8434375 -2.25976562 16.875 C-6.99792792 16.90604447 -10.16395816 16.66750833 -14 13.5625 C-15.56430248 10.43389505 -15.35627284 8.00647075 -15 4.5625 C-10.72019731 -0.37776607 -6.08518218 -0.07496239 0 0 Z " fill="#0676F9" transform="translate(47,411.4375)"/>
<path d="M0 0 C0.90234375 -0.01546875 1.8046875 -0.0309375 2.734375 -0.046875 C9.2727679 -0.00818628 9.2727679 -0.00818628 12.59375 2.3125 C14.66954031 5.54150715 14.53590914 7.74863602 14 11.5 C12.59375 13.6875 12.59375 13.6875 10 15.5 C6.65746391 16.09524615 3.38676143 16.05805877 0 16 C-1.35351562 16.02320313 -1.35351562 16.02320313 -2.734375 16.046875 C-9.2727679 16.00818628 -9.2727679 16.00818628 -12.59375 13.6875 C-14.66954031 10.45849285 -14.53590914 8.25136398 -14 4.5 C-10.57825433 -0.82271549 -5.7134218 -0.09794437 0 0 Z " fill="#207BE0" transform="translate(163,443.5)"/>
</svg>
