<?xml version="1.0" encoding="UTF-8"?>
<svg version="1.1" xmlns="http://www.w3.org/2000/svg" width="512" height="512">
<path d="M0 0 C-0.25669727 8.9073954 -1.22891981 15.95502893 -5 24 C-5.51833056 25.2478076 -6.03091035 26.49801287 -6.5390625 27.75 C-11.9585126 40.94133361 -19.11844159 51.66128764 -29 62 C-29.60070312 62.67546875 -30.20140625 63.3509375 -30.8203125 64.046875 C-43.15364586 77.39463838 -60.2997627 85.13965559 -77.5625 89.8125 C-78.63999512 90.1050769 -78.63999512 90.1050769 -79.73925781 90.40356445 C-92.13536713 93.51908328 -104.6974666 94.36745454 -117.4375 94.3125 C-118.47372498 94.30926727 -118.47372498 94.30926727 -119.53088379 94.30596924 C-161.90494109 94.09593222 -201.90269344 81.30646771 -241.27432251 66.80728149 C-284.02999718 51.07482323 -326.56513275 43.79856638 -372.125 43.75 C-373.0522287 43.74799591 -373.9794574 43.74599182 -374.93478394 43.743927 C-400.64713479 43.73056484 -426.35171634 45.39140515 -451.94360352 47.82788086 C-454.5299886 48.04435973 -457.09292109 48.10010259 -459.6875 48.0625 C-460.51636719 48.05347656 -461.34523438 48.04445312 -462.19921875 48.03515625 C-462.79347656 48.02355469 -463.38773437 48.01195312 -464 48 C-441.73831729 23.6431001 -389.88143689 15.49253991 -359 10 C-358.00000977 9.81920898 -357.00001953 9.63841797 -355.96972656 9.45214844 C-312.49805879 2.00705178 -268.22466572 7.50566523 -225.52514648 16.29418945 C-163.58186294 29.00395454 -101.24724027 29.12168373 -39.875 12.9375 C-38.62412598 12.60919189 -37.37325195 12.28088379 -36.08447266 11.94262695 C-30.10077414 10.31392554 -24.42362824 8.54569992 -18.83496094 5.84033203 C-15.9978954 4.54107982 -13.0011178 3.83364383 -10 3 C-8.74263266 2.47566217 -7.4924218 1.93382989 -6.25 1.375 C-3 0 -3 0 0 0 Z " fill="#91CCDD" transform="translate(488,168)"/>
<path d="M0 0 C48.565217 25.15214895 111.14567662 21.07986873 162.77099609 8.81811523 C166.43076553 7.97639735 168.9662284 7.59429398 172.55444336 8.68676758 C168.0652827 13.36946362 163.45156032 17.57269834 158.24194336 21.43676758 C157.55753174 21.94626953 156.87312012 22.45577148 156.16796875 22.98071289 C148.28540036 28.74944528 140.00447354 33.80026023 131.55444336 38.68676758 C130.9221582 39.05785645 130.28987305 39.42894531 129.63842773 39.8112793 C93.18373744 61.0438849 49.10529159 68.31094574 8.14868164 57.91967773 C-1.09732977 55.40386527 -9.79635222 51.7787387 -18.44555664 47.68676758 C-19.09830566 47.37900391 -19.75105469 47.07124023 -20.42358398 46.75415039 C-30.99441336 41.66805563 -40.46860879 35.05509928 -50.06225586 28.34936523 C-75.17607741 10.82988923 -101.17129393 -4.0087318 -130.44555664 -13.31323242 C-131.17532715 -13.55025879 -131.90509766 -13.78728516 -132.65698242 -14.03149414 C-150.39560701 -19.71190855 -169.22656391 -22.61355439 -187.8359375 -22.98608398 C-193.252342 -23.12001778 -193.252342 -23.12001778 -195.44555664 -25.31323242 C-129.14705947 -44.32459187 -60.27335272 -31.32748728 0 0 Z " fill="#92CDDE" transform="translate(267.445556640625,280.313232421875)"/>
<path d="M0 0 C3.82242766 1.55891635 6.06334795 3.95919988 8.875 6.9375 C15.0830892 13.31701365 21.87959767 18.68052592 29 24 C29.67949707 24.51320801 30.35899414 25.02641602 31.05908203 25.55517578 C72.15660178 56.48889399 120.78101766 77.79677505 173.20703125 71.45703125 C177.51291678 70.82103957 181.7510483 69.93640544 186 69 C216.78425081 62.58115621 253.4763294 55.69249677 281.9765625 72.78515625 C290.89759197 78.83270048 297.33814631 86.96964408 299.55859375 97.69921875 C301.75322245 114.1103803 299.38027106 129.08441342 290 143 C281.53279466 152.7396425 269.76637393 157.90266234 257 159 C238.80164248 159.64499585 219.65019234 157.07314662 205.6875 144.375 C198.76266831 137.00846094 195 127.97627361 195 118 C200.61 118 206.22 118 212 118 C212.61875 120.0728125 212.61875 120.0728125 213.25 122.1875 C215.63961004 129.19190741 219.03198547 132.52228818 225.54296875 135.8671875 C236.42400037 140.88387934 251.36482416 143.16087696 263.109375 139.80859375 C266.04047022 138.55500551 268.65760456 136.93495322 271.2734375 135.12109375 C273 134 273 134 276 133 C277.13219075 130.72375115 277.13219075 130.72375115 278 128 C278.35320312 127.13503906 278.70640625 126.27007812 279.0703125 125.37890625 C282.4335935 116.39770033 283.79446816 106.85657071 280.9375 97.5 C277.80119692 90.64116897 270.78902377 86.61319766 264 84 C255.24359293 81.44899872 246.90875727 80.48174279 237.8125 80.5625 C236.00761108 80.57168457 236.00761108 80.57168457 234.16625977 80.58105469 C217.22678222 80.86882105 200.62443896 83.9764463 184.13452148 87.69238281 C183.43786377 87.84932617 182.74120605 88.00626953 182.0234375 88.16796875 C181.43481934 88.30485107 180.84620117 88.4417334 180.23974609 88.58276367 C160.00015518 92.3531431 136.04407993 91.57771292 116 87 C114.71174316 86.70996094 114.71174316 86.70996094 113.39746094 86.4140625 C71.24833941 76.59996593 32.24570138 53.6560078 1 24 C-0.47257176 22.70081979 -1.95128444 21.40854981 -3.4375 20.125 C-4.06398437 19.57457031 -4.69046875 19.02414062 -5.3359375 18.45703125 C-6.73554866 17.23155012 -8.147622 16.02032268 -9.5625 14.8125 C-11 13 -11 13 -10.90625 11.18359375 C-9.60240655 8.04200543 -7.49911055 6.4549306 -4.9375 4.25 C-4.01839844 3.45078125 -3.09929687 2.6515625 -2.15234375 1.828125 C-1.44207031 1.22484375 -0.73179687 0.6215625 0 0 Z " fill="#418ABD" transform="translate(149,298)"/>
<path d="M0 0 C9.14289576 7.09285203 14.7616875 16.03901417 16.5 27.6875 C17.33772273 40.44666163 16.03790531 53.03112118 8.5 63.6875 C7.64535156 64.90373047 7.64535156 64.90373047 6.7734375 66.14453125 C-3.51656982 79.07656747 -20.15309199 84.84508834 -36.0078125 87.2109375 C-58.30256195 89.3410091 -80.78468518 85.34893782 -102.5 80.6875 C-127.62208454 75.37610945 -152.87036503 71.48529741 -178.5 69.6875 C-179.73363281 69.60072998 -179.73363281 69.60072998 -180.9921875 69.51220703 C-212.87070889 67.3940955 -245.33699118 68.20726932 -277.0390625 72.3203125 C-280.5529903 72.693122 -283.96916951 72.7510368 -287.5 72.6875 C-288.0321441 70.60702703 -288.55031786 68.52297707 -289.0625 66.4375 C-289.35253906 65.27734375 -289.64257812 64.1171875 -289.94140625 62.921875 C-290.47093314 59.85580322 -290.3538163 58.55719568 -289.5 55.6875 C-284.43683853 55.12932262 -279.37295158 54.57839976 -274.30834961 54.03344727 C-272.59493055 53.84813944 -270.88170408 53.66103988 -269.16870117 53.47192383 C-251.05633817 51.47482411 -233.03424701 50.47357571 -214.8125 50.5 C-214.0248526 50.50060425 -213.2372052 50.5012085 -212.4256897 50.50183105 C-174.17953879 50.58027783 -136.88695265 55.24699362 -99.47705078 62.87988281 C-94.07567743 63.9805791 -88.66444707 65.02825194 -83.25 66.0625 C-82.45376221 66.21783203 -81.65752441 66.37316406 -80.8371582 66.53320312 C-62.39163128 70.07474429 -39.18787924 72.05341136 -21.5 64.6875 C-20.64148438 64.336875 -19.78296875 63.98625 -18.8984375 63.625 C-12.14037561 60.37028123 -6.60175828 55.0532328 -3.3359375 48.26953125 C-0.32716511 39.42598997 -0.27170827 30.44737788 -4.1953125 21.91015625 C-8.17813444 15.12504941 -14.14174673 12.36526532 -21.57421875 10.31640625 C-35.1726894 8.13794478 -51.49984769 9.59427429 -63.0625 17.5 C-68.27340778 21.85522187 -70.60597791 27.21625785 -72.5 33.6875 C-74.2290774 33.71475341 -75.95828176 33.73400987 -77.6875 33.75 C-78.65042969 33.76160156 -79.61335937 33.77320313 -80.60546875 33.78515625 C-83.35576513 33.69236622 -85.82479591 33.30861685 -88.5 32.6875 C-89.41860553 24.60377136 -86.15662952 17.41619459 -81.515625 10.90234375 C-63.39422913 -10.39993544 -23.33046103 -15.18874589 0 0 Z " fill="#418ABC" transform="translate(416.5,79.3125)"/>
<path d="M0 0 C0.27534552 7.64359154 0.23615234 13.54963922 -5.125 19.375 C-6.73768346 20.92954597 -8.36202878 22.47212193 -10 24 C-11.09917832 25.29925917 -12.18360318 26.61120245 -13.25 27.9375 C-34.86218934 52.52384383 -69.04619264 65.83401426 -101 69 C-120.80968108 70.148428 -141.8769535 69.83019711 -161 64 C-160.85677897 62.45808846 -160.71028211 60.91648108 -160.5625 59.375 C-160.48128906 58.51648438 -160.40007812 57.65796875 -160.31640625 56.7734375 C-159.98027315 53.82708564 -159.50965712 50.92089208 -159 48 C-155.4371478 48.47657127 -151.87478575 48.95671442 -148.3125 49.4375 C-147.30509766 49.57220703 -146.29769531 49.70691406 -145.25976562 49.84570312 C-144.28330078 49.97783203 -143.30683594 50.10996094 -142.30078125 50.24609375 C-140.95753784 50.42676392 -140.95753784 50.42676392 -139.5871582 50.61108398 C-137.89523327 50.86542355 -136.21008035 51.17147304 -134.53808594 51.53442383 C-104.61893585 57.02267115 -68.40477754 48.69799604 -43.3125 31.86816406 C-36.87015308 27.39058382 -31.03856245 22.2970714 -25.4375 16.8125 C-24.94870361 16.33780273 -24.45990723 15.86310547 -23.95629883 15.37402344 C-21.44296252 12.82600528 -19.52361273 10.31256826 -17.8359375 7.18359375 C-17.23007812 6.13300781 -16.62421875 5.08242187 -16 4 C-13.1875 3.25 -13.1875 3.25 -10 3 C-8.75422606 2.5202445 -7.52436482 1.99741223 -6.3125 1.4375 C-3 0 -3 0 0 0 Z " fill="#428BBD" transform="translate(488,168)"/>
<path d="M0 0 C0 5.28 0 10.56 0 16 C-2.65679658 17.32839829 -4.72807184 17.16142898 -7.703125 17.2109375 C-8.89599121 17.23712158 -10.08885742 17.26330566 -11.31787109 17.2902832 C-12.61547363 17.31823975 -13.91307617 17.34619629 -15.25 17.375 C-53.04420057 18.37958641 -90.78577235 23.20569657 -126.05322266 37.33911133 C-128 38 -128 38 -133 39 C-135.64 34.38 -138.28 29.76 -141 25 C-98.44573296 2.36475157 -47.3303147 -0.8144796 0 0 Z " fill="#418ABC" transform="translate(208,104)"/>
<path d="M0 0 C3.15900071 0.60140426 5.07816602 1.59047604 7.58203125 3.58984375 C8.25830566 4.12158203 8.93458008 4.65332031 9.63134766 5.20117188 C10.35112793 5.77416016 11.0709082 6.34714844 11.8125 6.9375 C40.90183324 29.55635695 74.50601527 49.26547791 111.81640625 52.640625 C115 53 115 53 116 54 C116.07319621 56.69654854 116.09242537 59.36691458 116.0625 62.0625 C116.05798828 62.82111328 116.05347656 63.57972656 116.04882812 64.36132812 C116.0370068 66.24091871 116.01907078 68.12046899 116 70 C69.23008738 72.74668329 24.81286602 40.82912998 -10 13 C-8.48446596 9.52224821 -6.4226544 7.0442016 -3.875 4.25 C-3.15054688 3.45078125 -2.42609375 2.6515625 -1.6796875 1.828125 C-0.84824219 0.92320312 -0.84824219 0.92320312 0 0 Z " fill="#408ABD" transform="translate(148,346)"/>
<path d="M0 0 C5.28 0 10.56 0 16 0 C16 5.28 16 10.56 16 16 C10.72 16 5.44 16 0 16 C0 10.72 0 5.44 0 0 Z " fill="#92CDDE" transform="translate(288,456)"/>
<path d="M0 0 C5.28 0 10.56 0 16 0 C16 5.28 16 10.56 16 16 C10.72 16 5.44 16 0 16 C0 10.72 0 5.44 0 0 Z " fill="#92CDDE" transform="translate(304,440)"/>
<path d="M0 0 C5.28 0 10.56 0 16 0 C16 5.28 16 10.56 16 16 C10.72 16 5.44 16 0 16 C0 10.72 0 5.44 0 0 Z " fill="#92CDDE" transform="translate(272,440)"/>
<path d="M0 0 C5.28 0 10.56 0 16 0 C16 5.28 16 10.56 16 16 C10.72 16 5.44 16 0 16 C0 10.72 0 5.44 0 0 Z " fill="#92CDDE" transform="translate(288,424)"/>
<path d="M0 0 C5.28 0 10.56 0 16 0 C16 5.28 16 10.56 16 16 C10.72 16 5.44 16 0 16 C0 10.72 0 5.44 0 0 Z " fill="#92CDDE" transform="translate(88,328)"/>
<path d="M0 0 C5.28 0 10.56 0 16 0 C16 5.28 16 10.56 16 16 C10.72 16 5.44 16 0 16 C0 10.72 0 5.44 0 0 Z " fill="#92CDDE" transform="translate(104,312)"/>
<path d="M0 0 C5.28 0 10.56 0 16 0 C16 5.28 16 10.56 16 16 C10.72 16 5.44 16 0 16 C0 10.72 0 5.44 0 0 Z " fill="#92CDDE" transform="translate(72,312)"/>
<path d="M0 0 C5.28 0 10.56 0 16 0 C16 5.28 16 10.56 16 16 C10.72 16 5.44 16 0 16 C0 10.72 0 5.44 0 0 Z " fill="#92CDDE" transform="translate(88,296)"/>
<path d="M0 0 C5.28 0 10.56 0 16 0 C16 5.28 16 10.56 16 16 C10.72 16 5.44 16 0 16 C0 10.72 0 5.44 0 0 Z " fill="#418ABD" transform="translate(224,104)"/>
<path d="M0 0 C5.28 0 10.56 0 16 0 C16 5.28 16 10.56 16 16 C10.72 16 5.44 16 0 16 C0 10.72 0 5.44 0 0 Z " fill="#92CDDE" transform="translate(280,88)"/>
<path d="M0 0 C5.28 0 10.56 0 16 0 C16 5.28 16 10.56 16 16 C10.72 16 5.44 16 0 16 C0 10.72 0 5.44 0 0 Z " fill="#92CDDE" transform="translate(64,88)"/>
<path d="M0 0 C5.28 0 10.56 0 16 0 C16 5.28 16 10.56 16 16 C10.72 16 5.44 16 0 16 C0 10.72 0 5.44 0 0 Z " fill="#92CDDE" transform="translate(296,72)"/>
<path d="M0 0 C5.28 0 10.56 0 16 0 C16 5.28 16 10.56 16 16 C10.72 16 5.44 16 0 16 C0 10.72 0 5.44 0 0 Z " fill="#92CDDE" transform="translate(264,72)"/>
<path d="M0 0 C5.28 0 10.56 0 16 0 C16 5.28 16 10.56 16 16 C10.72 16 5.44 16 0 16 C0 10.72 0 5.44 0 0 Z " fill="#92CDDE" transform="translate(80,72)"/>
<path d="M0 0 C5.28 0 10.56 0 16 0 C16 5.28 16 10.56 16 16 C10.72 16 5.44 16 0 16 C0 10.72 0 5.44 0 0 Z " fill="#92CDDE" transform="translate(48,72)"/>
<path d="M0 0 C5.28 0 10.56 0 16 0 C16 5.28 16 10.56 16 16 C10.72 16 5.44 16 0 16 C0 10.72 0 5.44 0 0 Z " fill="#92CDDE" transform="translate(280,56)"/>
<path d="M0 0 C5.28 0 10.56 0 16 0 C16 5.28 16 10.56 16 16 C10.72 16 5.44 16 0 16 C0 10.72 0 5.44 0 0 Z " fill="#92CDDE" transform="translate(64,56)"/>
<path d="M0 0 C0.14285714 7.42857143 0.14285714 7.42857143 -1 11 C-5.19360449 10.32902328 -8.40334352 8.1441606 -12 6 C-12 5.34 -12 4.68 -12 4 C-10.56570999 3.32645501 -9.12742943 2.66140299 -7.6875 2 C-6.88699219 1.62875 -6.08648437 1.2575 -5.26171875 0.875 C-3 0 -3 0 0 0 Z " fill="#90CDDE" transform="translate(488,168)"/>
</svg>
