<?xml version="1.0" encoding="UTF-8"?>
<svg version="1.1" xmlns="http://www.w3.org/2000/svg" width="512" height="512">
<path d="M0 0 C1.22011001 -0.00384115 2.44022002 -0.00768229 3.69730306 -0.01163983 C5.04804824 -0.01085965 6.39879336 -0.00998087 7.74953842 -0.00901413 C9.1869956 -0.01159864 10.62445206 -0.01461204 12.06190753 -0.01801753 C16.01238814 -0.02608064 19.96285056 -0.02787672 23.91333842 -0.028615 C28.1738628 -0.03046674 32.43437777 -0.03801465 36.6948967 -0.04475021 C46.01102221 -0.05832886 55.32714341 -0.06435744 64.64327717 -0.06876087 C70.46048511 -0.07152391 76.2776914 -0.07576136 82.09489822 -0.08026505 C98.20180914 -0.09245677 114.30871873 -0.10275649 130.41563416 -0.10614014 C131.44639082 -0.1063597 132.47714748 -0.10657927 133.5391392 -0.10680549 C134.57235641 -0.10702377 135.60557362 -0.10724204 136.67010045 -0.10746694 C138.76377948 -0.1079104 140.85745851 -0.10835697 142.95113754 -0.10880661 C143.9896738 -0.10902804 145.02821005 -0.10924947 146.0982171 -0.10947761 C162.92744077 -0.11342591 179.75662115 -0.13088133 196.5858281 -0.15416613 C213.86505119 -0.17788058 231.14425256 -0.19034202 248.42349219 -0.19150805 C258.12479113 -0.19242473 267.82603365 -0.19817515 277.52731705 -0.21632767 C285.78781512 -0.23172985 294.04823934 -0.23684839 302.30874905 -0.22858956 C306.52250889 -0.22468358 310.73612 -0.22561017 314.94986153 -0.23964691 C318.8102021 -0.25238871 322.67028222 -0.25118596 326.53062245 -0.2390562 C327.92430069 -0.23709969 329.31799739 -0.24017554 330.71164969 -0.24890056 C341.20318934 -0.31040482 351.08495863 0.4724189 358.95943832 8.13142776 C365.1808263 16.36751392 365.67574067 24.06105946 364.95943832 34.13142776 C363.32347357 41.16165469 357.73761384 46.14841358 351.95943832 50.13142776 C347.73825262 51.79565489 344.21345944 52.38326989 339.68930054 52.39148998 C338.44343241 52.39855557 337.19756428 52.40562117 335.91394258 52.41290087 C334.53931665 52.41064972 333.16469103 52.40820325 331.79006577 52.40558243 C330.32358266 52.41003649 328.85710195 52.41535109 327.39062476 52.42145115 C323.36450813 52.43562137 319.33846872 52.43729463 315.31233072 52.43685424 C310.96862983 52.4385033 306.62496068 52.45157145 302.2812767 52.46304703 C292.78539608 52.48588873 283.28953783 52.49381665 273.79363346 52.49887347 C267.86334081 52.50213127 261.93305464 52.50865422 256.00276566 52.51587486 C239.58013366 52.53543922 223.15750768 52.55184455 206.73486328 52.5547514 C205.68412002 52.55493897 204.63337676 52.55512654 203.5507928 52.55531979 C201.42072916 52.55568604 199.29066552 52.55604974 197.16060188 52.5564109 C196.10325111 52.55659371 195.04590034 52.55677652 193.95650864 52.55696487 C192.36854452 52.5572357 192.36854452 52.5572357 190.74850032 52.55751199 C173.59341986 52.5610539 156.43846491 52.58807804 139.28342798 52.62546276 C121.66628969 52.663547 104.04921368 52.68290888 86.4320333 52.68321091 C76.54232472 52.68379543 66.65276588 52.69228412 56.76309586 52.72120857 C48.34231354 52.74572392 39.9217356 52.75300425 31.50092724 52.73796105 C27.20593196 52.73079294 22.91134024 52.73164517 18.61639023 52.75437164 C14.68063352 52.77499764 10.7455897 52.77232811 6.80984041 52.7514968 C5.38992662 52.74800879 3.96996102 52.75288279 2.55011514 52.76720124 C-6.91142668 52.85642832 -14.6375866 51.90162983 -21.94172454 45.45292085 C-27.17840711 40.09640744 -29.12451354 33.48751001 -29.47806168 26.13142776 C-29.20597099 18.50105848 -25.85069635 12.20353041 -20.74759293 6.63533401 C-14.73014565 1.33392165 -7.82232199 0.00925621 0 0 Z " fill="#000000" transform="translate(147.0405616760254,389.8685722351074)"/>
<path d="M0 0 C1.4720784 -0.00433507 2.94415168 -0.01085656 4.4162119 -0.01936007 C8.43928426 -0.0362815 12.46173015 -0.02221992 16.48476923 -0.00284529 C20.83175834 0.01262688 25.17867293 -0.00083166 29.52566528 -0.0105896 C38.03182993 -0.0250947 46.53775539 -0.01290451 55.04389735 0.00852364 C64.95174372 0.03256477 74.85953565 0.03081742 84.76740471 0.02821773 C102.4446209 0.02452996 120.12172453 0.04533404 137.79890442 0.07946777 C154.94964949 0.11257265 172.10027648 0.12672324 189.25105286 0.1204834 C207.93464542 0.11371931 226.61818858 0.11617902 245.30177385 0.1358428 C246.28969332 0.13688229 247.2776128 0.13792177 248.29546923 0.13899276 C250.27959181 0.14108363 252.26371437 0.1431946 254.24783691 0.14532593 C261.15363401 0.1522202 268.05941587 0.15289108 274.96521568 0.15144348 C283.37901651 0.15000379 291.7927211 0.15969484 300.20649 0.18338984 C304.49900602 0.19524863 308.7913879 0.20237572 313.08391953 0.19655228 C317.01367886 0.19137848 320.94315485 0.2000755 324.87286571 0.21982688 C326.29393927 0.22456432 327.71504045 0.22426959 329.13610985 0.21841651 C339.85299271 0.17854299 346.54764068 1.21058545 354.52864075 8.69567871 C360.5499836 15.13498896 360.96200708 21.35786739 360.720047 30.05114746 C360.21242269 34.69083364 359.02329472 37.8575472 356.329422 41.62145996 C355.772547 42.50833496 355.215672 43.39520996 354.641922 44.30895996 C348.28755398 50.66332798 341.08639432 52.74247549 332.29165363 52.75288773 C331.07216032 52.75672887 329.85266701 52.76057002 328.59621936 52.76452756 C327.24616319 52.76374737 325.89610707 52.7628686 324.54605103 52.76190186 C323.10930654 52.76448637 321.67256277 52.76749977 320.23582 52.77090526 C316.28727 52.77896839 312.3387382 52.78076445 308.39018095 52.78150272 C304.13168245 52.78335447 299.87319337 52.79090243 295.61470032 52.79763794 C286.30263977 52.81121694 276.99058352 52.81724531 267.67851472 52.8216486 C261.86330909 52.82441176 256.04810512 52.82864926 250.23290062 52.83315277 C234.13028092 52.8453449 218.02766255 52.85564431 201.92503834 52.85902786 C200.89453324 52.85924743 199.86402814 52.85946699 198.80229561 52.85969321 C197.25285297 52.86002063 197.25285297 52.86002063 195.67210847 52.86035466 C193.57895712 52.86079813 191.48580577 52.86124469 189.39265442 52.86169434 C188.35438048 52.86191577 187.31610653 52.8621372 186.24636974 52.86236534 C169.42428815 52.86631298 152.60224988 52.88376623 135.78018502 52.90705386 C118.50660716 52.9307734 101.23305103 52.94322999 83.95945662 52.94439578 C74.26203819 52.9453122 64.56467621 52.95105631 54.86727333 52.96921539 C46.60936568 52.9846245 38.35153194 52.98973205 30.09361265 52.98147729 C25.88175414 52.97757366 21.67004442 52.97848635 17.45820427 52.99253464 C13.59842823 53.00529069 9.73891253 53.0040612 5.87913676 52.99194393 C4.48678662 52.98998987 3.09441792 52.99305186 1.70209382 53.00178829 C-9.26538075 53.06621957 -18.7655989 52.40945523 -26.97917175 44.59411621 C-32.07790431 38.64755746 -33.99378511 32.02578837 -33.8815155 24.31286621 C-33.28256184 16.67066114 -30.4103635 10.68887725 -24.670578 5.62145996 C-16.82275324 0.19020829 -9.27890584 -0.08894725 0 0 Z " fill="#000000" transform="translate(151.6705780029297,69.3785400390625)"/>
<path d="M0 0 C1.45898904 -0.00389845 2.91797427 -0.00954325 4.37695062 -0.0167709 C8.36380455 -0.03146518 12.35026108 -0.02138054 16.33710194 -0.00703418 C20.64525056 0.00410601 24.95334483 -0.00787696 29.26148987 -0.01687622 C37.69175423 -0.03078927 46.12186853 -0.02326715 54.55212571 -0.00820064 C64.37276126 0.00868116 74.19335965 0.00544652 84.01400523 0.00170528 C101.53698552 -0.0041696 119.05989389 0.0099845 136.58285522 0.03465271 C153.58125503 0.05857972 170.57955879 0.06565363 187.57797241 0.05516052 C206.09713157 0.04374911 224.61624633 0.04182345 243.13540494 0.05625862 C245.11032382 0.05778443 247.0852427 0.05930479 249.06016159 0.06081963 C250.03181694 0.06157744 251.00347229 0.06233525 252.00457174 0.06311603 C258.84828592 0.06785655 265.69198025 0.06600912 272.53569412 0.06175423 C280.87553326 0.05682573 289.21528162 0.06282037 297.55509998 0.08264852 C301.80926393 0.09251409 306.06328971 0.09763353 310.31746101 0.08975601 C314.21334275 0.08268955 318.10894589 0.08952625 322.00479095 0.10735964 C323.41242595 0.11139783 324.82008643 0.11041481 326.22771187 0.10384078 C336.8731026 0.0583869 344.70179328 0.9467606 352.68441772 8.50511169 C358.3407146 14.89973051 359.16618339 21.69120889 358.89535522 30.05979919 C357.90607276 37.70504352 354.42384113 43.32180377 348.58676147 48.24729919 C340.60250555 52.93275834 333.20198734 52.93114209 324.15405273 52.8888855 C322.69821652 52.89306197 321.24238356 52.8985412 319.7865566 52.90520531 C315.79911673 52.91963774 311.81188395 52.91542212 307.82443285 52.9080385 C303.51893717 52.90330364 299.21348609 52.91581951 294.90800476 52.92605591 C286.47816386 52.94324321 278.04839751 52.94408403 269.61854364 52.938843 C262.76574194 52.93479983 255.91296224 52.93624662 249.06016159 52.94159126 C248.08443022 52.94233968 247.10869885 52.94308811 246.10339987 52.94385921 C244.12112844 52.9453907 242.13885703 52.94692905 240.15658562 52.94847418 C221.57123565 52.96219905 202.98592779 52.95676168 184.40057878 52.94528896 C167.40406983 52.93535732 150.40766975 52.94829609 133.41117759 52.97222316 C115.95217311 52.99661583 98.49321934 53.00622156 81.03419816 52.99957043 C71.23509389 52.99607849 61.43607334 52.99830857 51.63698196 53.01582146 C43.29494436 53.03054555 34.95304943 53.03117618 26.61101462 53.01375055 C22.35657099 53.00523976 18.10238221 53.00309284 13.84795189 53.0184021 C9.94935678 53.03225699 6.05123466 53.02747606 2.15266685 53.00816286 C0.74627844 53.00440496 -0.66014793 53.00731883 -2.0665025 53.01777451 C-12.12484048 53.08720602 -20.61936603 52.17535354 -28.42495728 45.37620544 C-33.85098028 39.36011847 -36.32139844 32.07888348 -35.92886353 24.01292419 C-34.69006573 15.80109962 -31.18242288 9.48965481 -24.54995728 4.50120544 C-16.66527978 0.03937175 -8.85119785 -0.06580514 0 0 Z " fill="#000000" transform="translate(153.54995727539063,229.49879455566406)"/>
<path d="M0 0 C8.33993334 6.69874164 13.14872741 14.28536332 14.3203125 24.98828125 C14.68919934 35.53613947 12.69129053 43.65984345 5.9453125 51.875 C-0.98466682 59.08034273 -10.01745528 63.50252459 -20.0546875 63.875 C-29.25072398 63.72173273 -38.12615689 60.59688278 -45.1171875 54.62109375 C-53.33207583 45.8927749 -55.657961 36.18848571 -55.3671875 24.546875 C-54.6303309 15.15195334 -50.19191044 6.9873346 -43.0546875 0.83984375 C-30.00729661 -8.64281356 -13.37203467 -9.09514909 0 0 Z " fill="#000000" transform="translate(55.0546875,227.4375)"/>
<path d="M0 0 C6.94258651 4.89452349 10.69056666 11.09297026 13.90625 18.83984375 C15.88690147 30.52568744 14.61663999 40.84520403 7.90625 50.77734375 C2.55327292 57.36353833 -4.21761799 61.66645015 -12.46875 63.52734375 C-24.8238662 64.61046301 -34.06590032 63.46280274 -43.78125 55.40234375 C-49.84013313 49.64831008 -54.15668919 42.32080238 -54.70703125 33.8671875 C-55.02151723 21.55730757 -53.59089043 12.8507719 -44.82421875 3.57421875 C-31.84609293 -7.70362193 -14.68263821 -8.75847248 0 0 Z " fill="#000000" transform="translate(54.46875,68.47265625)"/>
<path d="M0 0 C9.03238344 4.91879796 15.10798124 11.78597342 18.890625 21.34765625 C21.74492051 31.15822886 20.6475469 41.06747024 16.015625 50.09765625 C11.07474792 58.39361166 4.5349908 62.76253995 -4.234375 66.47265625 C-16.29914724 68.48345162 -26.13007004 67.32534609 -36.234375 60.34765625 C-42.30122199 55.46966614 -47.56102651 48.89666494 -48.984375 41.09765625 C-50.00393093 28.42243627 -49.23117009 18.8905797 -40.859375 8.78515625 C-30.73414496 -1.87650982 -13.82408358 -5.67209536 0 0 Z " fill="#000000" transform="translate(48.984375,381.90234375)"/>
</svg>
