<?xml version="1.0" encoding="UTF-8"?>
<svg version="1.1" xmlns="http://www.w3.org/2000/svg" width="512" height="512">
<path d="M0 0 C5.09620539 3.01237564 8.70841667 7.93775001 10.5625 13.5 C12.28975417 25.43601151 7.77889176 34.88664488 3.1875 45.5625 C2.41230156 47.41259941 1.63948354 49.26369781 0.86889648 51.11572266 C-0.74212138 54.9805774 -2.36451087 58.84035439 -3.99560547 62.69677734 C-7.49309326 70.98319965 -10.87354293 79.31712208 -14.26379395 87.64782715 C-16.13408538 92.23798216 -18.01459484 96.82394497 -19.89453125 101.41015625 C-22.93629211 108.83353339 -25.97541479 116.25798295 -29.01171875 123.68359375 C-29.77140285 125.54142259 -30.53108709 127.39925136 -31.29077148 129.25708008 C-31.66579803 130.17421783 -32.04082458 131.09135559 -32.42721558 132.0362854 C-38.05635619 145.80173662 -43.69275066 159.56417148 -49.34118652 173.32171631 C-56.54068975 190.85721616 -63.70956974 208.4051028 -70.87011719 225.95654297 C-76.42747181 239.57797104 -81.9911046 253.19680874 -87.5625 266.8125 C-87.9300238 267.71068451 -88.29754761 268.60886902 -88.6762085 269.53427124 C-90.52392765 274.04975216 -92.37179349 278.56517303 -94.21972656 283.08056641 C-97.5841525 291.30168901 -100.94725987 299.52335104 -104.31048584 307.7449646 C-106.18610504 312.32999775 -108.06180662 316.91499719 -109.9375 321.5 C-110.6875004 323.33333317 -111.4375004 325.1666665 -112.1875 327 C-134.68750002 382.00000006 -134.68750002 382.00000006 -135.81245422 384.74987793 C-136.56261632 386.58361428 -137.3127689 388.41735451 -138.06291199 390.25109863 C-139.93535408 394.82829779 -141.80796019 399.40542971 -143.6809082 403.98242188 C-147.4719317 413.24720305 -151.26008493 422.51314211 -155.04296875 431.78125 C-158.41485638 440.04228758 -161.79484058 448.29996756 -165.18238831 456.55459595 C-167.35555272 461.85221465 -169.51748005 467.15424617 -171.67124939 472.45977783 C-173.03454482 475.81198531 -174.40681227 479.160467 -175.78140259 482.50805664 C-176.4183666 484.06459366 -177.05159564 485.62266527 -177.68075562 487.18237305 C-178.544093 489.32114776 -179.42077393 491.45397819 -180.30078125 493.5859375 C-180.78844971 494.7826709 -181.27611816 495.9794043 -181.77856445 497.21240234 C-184.61160796 502.82678996 -188.19845099 507.17607849 -193.9921875 509.80859375 C-200.20547074 511.5653847 -206.85361041 511.37667683 -212.9375 509.3125 C-222.42881764 502.43129471 -224.9105598 494.00710045 -226.84082031 482.96289062 C-227.15471584 481.25414937 -227.15471584 481.25414937 -227.4749527 479.5108881 C-228.16684243 475.72802772 -228.84121709 471.94226281 -229.515625 468.15625 C-230.00244792 465.46731998 -230.4930116 462.77907593 -230.98345947 460.09080505 C-232.0254965 454.36834093 -233.05873388 448.64434738 -234.08569336 442.91915894 C-235.55298351 434.73921495 -237.03347989 426.56170705 -238.51763916 418.3848089 C-240.6832458 406.45242727 -242.84132035 394.51870422 -244.99271393 382.58375227 C-247.83405961 366.82161288 -250.69847296 351.0637851 -253.578125 335.30859375 C-253.96229885 333.20533955 -254.34643454 331.10207837 -254.73052979 328.99880981 C-254.91523205 327.98740999 -255.09993431 326.97601017 -255.29023361 325.93396187 C-255.56180723 324.44684606 -255.56180723 324.44684606 -255.83886719 322.9296875 C-256.10444365 321.47551076 -256.10444365 321.47551076 -256.37538528 319.99195671 C-256.8961377 317.14047981 -257.41682861 314.28899169 -257.9375 311.4375 C-258.19407127 310.03257797 -258.19407127 310.03257797 -258.45582581 308.59927368 C-259.42217463 303.30653624 -260.38676457 298.0134846 -261.34844208 292.71989632 C-261.63327513 291.15357183 -261.91872499 289.58735937 -262.20484161 288.02126884 C-262.58806106 285.92324444 -262.96913581 283.82484218 -263.34960938 281.72631836 C-263.66738342 279.98069862 -263.66738342 279.98069862 -263.99157715 278.19981384 C-264.4375 275.5 -264.4375 275.5 -264.4375 273.5 C-265.08269183 273.39045014 -265.72788366 273.28090029 -266.39262676 273.16803074 C-301.14490735 267.25290309 -335.82046667 260.89904273 -370.50588703 254.60629177 C-382.93409239 252.35173261 -395.36372103 250.10535813 -407.79525501 247.86922401 C-416.60169831 246.28443279 -425.40641064 244.69024966 -434.20990437 243.08915573 C-439.44565259 242.13720729 -444.68207586 241.18943585 -449.92043495 240.25195122 C-454.82696811 239.37367971 -459.73125371 238.48379854 -464.63406944 237.58501434 C-466.42795342 237.25824552 -468.2226066 236.9356664 -470.01806641 236.61767006 C-472.47479805 236.18189397 -474.92827005 235.7308785 -477.38154602 235.27610779 C-478.08552389 235.15498656 -478.78950176 235.03386534 -479.51481229 234.90907377 C-488.40244577 233.21913208 -494.89510753 229.38605857 -500.25 222 C-502.49697542 215.37733561 -502.76135319 207.57618803 -499.9375 201.0625 C-493.78463405 191.46797171 -482.27763097 188.24859254 -472.1875 184.25 C-470.45547055 183.55316891 -468.72395485 182.8550597 -466.99291992 182.15576172 C-463.33957523 180.68113736 -459.68401603 179.21220414 -456.02685547 177.74707031 C-447.82932905 174.45792282 -439.65998029 171.10004411 -431.48815918 167.74768066 C-426.86454382 165.85193859 -422.2388265 163.96133963 -417.61328125 162.0703125 C-415.74820026 161.30764013 -413.88312864 160.54494482 -412.01806641 159.78222656 C-411.09576233 159.40505493 -410.17345825 159.0278833 -409.22320557 158.63928223 C-401.87603519 155.63447773 -394.52928423 152.6286478 -387.1824646 149.62298584 C-382.60083116 147.74860485 -378.01916386 145.87430664 -373.4375 144 C-371.6041665 143.2500004 -369.77083317 142.5000004 -367.9375 141.75 C-136.93750002 47.25000001 -136.93750002 47.25000001 -134.18760681 46.12504578 C-132.3539155 45.37489794 -130.52022612 44.62474535 -128.6865387 43.87458801 C-124.10869842 42.00181093 -119.53082459 40.12911596 -114.95288086 38.2565918 C-103.88816988 33.73065091 -103.88816988 33.73065091 -92.82470703 29.20166016 C-91.895298 28.82104431 -90.96588898 28.44042847 -90.00831604 28.04827881 C-88.13190638 27.27974051 -86.25555333 26.51106397 -84.3792572 25.74224854 C-79.7592245 23.84964748 -75.13787631 21.96040118 -70.51342773 20.07861328 C-62.48882499 16.81102405 -54.47272153 13.53026081 -46.50013733 10.13731384 C-43.13359723 8.70685166 -39.76010906 7.2932492 -36.38571167 5.88143921 C-34.82381481 5.22253551 -33.26530502 4.55553035 -31.71072388 3.87954712 C-21.44221974 -0.58286025 -11.04196224 -4.4017711 0 0 Z " fill="#000000" transform="translate(501.4375,1.5)"/>
</svg>
