<?xml version="1.0" encoding="UTF-8"?>
<svg version="1.1" xmlns="http://www.w3.org/2000/svg" width="512" height="512">
<path d="M0 0 C4.26487889 3.34240138 8.26392568 6.90266899 11.94921875 10.87890625 C12.54089844 11.47703125 13.13257813 12.07515625 13.7421875 12.69140625 C31.51717646 31.39468283 35.28249627 54.74109413 35.17626953 79.59082031 C35.1757044 81.45463556 35.17602396 83.31845125 35.17715454 85.18226624 C35.17772509 90.2082945 35.16601923 95.23422605 35.15200663 100.26023197 C35.13944939 105.5252692 35.13832485 110.79030899 35.13595581 116.05535889 C35.12975566 126.01040889 35.11336477 135.96541463 35.09325683 145.9204452 C35.0708521 157.26028387 35.05989292 168.60012472 35.04986596 179.93998003 C35.02899717 203.25297992 34.99384983 226.56594059 34.94921875 249.87890625 C35.5625708 250.17079834 36.17592285 250.46269043 36.80786133 250.76342773 C41.47172932 253.19293553 45.13732402 257.30948411 48.94921875 260.87890625 C49.696875 261.56082031 50.44453125 262.24273437 51.21484375 262.9453125 C69.20648134 279.99853734 80.75401971 303.11687614 86.94921875 326.87890625 C87.24957031 328.02230469 87.54992187 329.16570312 87.859375 330.34375 C95.80088451 366.72694472 87.75449006 404.28827251 68.51171875 435.69140625 C64.73474156 441.42585792 60.39144067 446.65276282 55.94921875 451.87890625 C55.41296875 452.53890625 54.87671875 453.19890625 54.32421875 453.87890625 C50.60922553 458.40150669 46.47054821 462.17216342 41.94921875 465.87890625 C40.57830078 467.02359375 40.57830078 467.02359375 39.1796875 468.19140625 C8.25939246 493.08321609 -29.29406446 501.16399451 -68.31933594 497.57861328 C-74.02613159 496.80221214 -79.53564451 495.52480443 -85.05078125 493.87890625 C-86.14398682 493.55744629 -86.14398682 493.55744629 -87.25927734 493.22949219 C-102.69155914 488.54353524 -117.00811344 481.36107567 -130.05078125 471.87890625 C-131.2728125 470.99332031 -131.2728125 470.99332031 -132.51953125 470.08984375 C-157.92177656 450.70826047 -175.02228444 423.67265178 -183.05078125 392.87890625 C-183.35113281 391.73550781 -183.65148437 390.59210938 -183.9609375 389.4140625 C-188.51638747 368.54374521 -187.95323793 344.38926942 -182.05078125 323.87890625 C-181.72932129 322.73276855 -181.72932129 322.73276855 -181.40136719 321.56347656 C-173.45298558 293.92347124 -156.57226545 266.94431874 -133.05078125 249.87890625 C-132.39078125 249.87890625 -131.73078125 249.87890625 -131.05078125 249.87890625 C-131.05354663 248.91959953 -131.05631201 247.96029282 -131.05916119 246.9719162 C-131.12591126 223.57472544 -131.17513019 200.1775471 -131.20621777 176.78028107 C-131.22165304 165.46530258 -131.24267839 154.15038719 -131.27709961 142.83544922 C-131.30710455 132.96748259 -131.32638049 123.09956168 -131.33304673 113.23155069 C-131.33694026 108.01184837 -131.34602024 102.79227679 -131.36797142 97.57261658 C-131.38851227 92.64786358 -131.39457991 87.72329374 -131.39010429 82.79850197 C-131.39092169 81.00237339 -131.39678156 79.20623792 -131.40839767 77.41014671 C-131.56794164 51.44173082 -125.2740986 28.30151094 -107.05078125 8.87890625 C-78.2282845 -18.56260534 -32.90513572 -22.87770639 0 0 Z M-81.86328125 39.62890625 C-89.6708155 49.14894212 -92.38187634 60.72597237 -92.29129028 72.78175354 C-92.29385356 74.05510595 -92.29385356 74.05510595 -92.29646862 75.35418266 C-92.29973926 78.17314048 -92.28880014 80.99185546 -92.27783203 83.81079102 C-92.27726739 85.84164932 -92.27758551 87.87250802 -92.27871704 89.90336609 C-92.2792895 95.39856168 -92.2675525 100.89366949 -92.25356913 106.38884473 C-92.24104391 112.13837056 -92.23988985 117.88789854 -92.23751831 123.63743591 C-92.23130881 134.51694069 -92.21490514 145.39640515 -92.19481933 156.2758922 C-92.17244385 168.66521868 -92.16146275 181.05454712 -92.15142846 193.44388878 C-92.13053846 218.92225027 -92.09537277 244.400576 -92.05078125 269.87890625 C-92.67406815 270.18412201 -93.29735504 270.48933777 -93.93952942 270.80380249 C-96.01143292 271.85886907 -97.76310372 273.03009723 -99.625 274.41796875 C-100.28806152 274.91159912 -100.95112305 275.40522949 -101.63427734 275.91381836 C-125.60849475 294.03218433 -142.75780272 316.31975022 -147.05078125 346.87890625 C-148.13531189 361.49470785 -147.75412857 375.92993783 -143.05078125 389.87890625 C-142.83647461 390.52359863 -142.62216797 391.16829102 -142.40136719 391.83251953 C-133.63675281 417.39278869 -115.25064942 437.81159683 -91.19921875 449.85546875 C-67.73619355 461.01655801 -40.59401615 463.16235584 -15.96484375 454.421875 C-4.71370318 450.12696301 5.59549285 444.49884183 14.94921875 436.87890625 C16.19058594 435.88310547 16.19058594 435.88310547 17.45703125 434.8671875 C36.09101212 419.06627268 47.47147152 396.96708296 50.94921875 372.87890625 C51.87695023 358.21307104 51.64806318 343.87822208 46.94921875 329.87890625 C46.74022949 329.23953125 46.53124023 328.60015625 46.31591797 327.94140625 C39.21965058 306.84927966 25.19862894 290.34095475 7.61425781 277.13134766 C6.15861874 276.0364168 4.7203288 274.91849812 3.28515625 273.796875 C-0.0043118 270.90479268 -0.0043118 270.90479268 -4.05078125 269.87890625 C-4.04801587 268.82829891 -4.04525049 267.77769157 -4.04240131 266.69524765 C-3.97573498 241.10467022 -3.92647185 215.51410409 -3.89534473 189.9234581 C-3.87989092 177.54789896 -3.85882977 165.17239726 -3.82446289 152.796875 C-3.7945151 142.00750192 -3.77519545 131.21817045 -3.76851577 120.42875695 C-3.76461264 114.71846123 -3.75547063 109.00828453 -3.73359108 103.29802704 C-3.71314096 97.9169392 -3.70696465 92.53601879 -3.71145821 87.15489578 C-3.71063681 85.18615686 -3.70472223 83.21741199 -3.69316483 81.24870682 C-3.59554188 63.75272837 -5.32992956 49.37472787 -17.67578125 36.0234375 C-28.68602942 26.08161802 -40.68090551 23.96645696 -54.91992188 24.68798828 C-65.45108723 25.63154595 -74.74833319 32.12978173 -81.86328125 39.62890625 Z " fill="#000000" transform="translate(304.05078125,14.12109375)"/>
<path d="M0 0 C4.71674147 2.64876713 7.77599301 5.94832284 9.59375 11.11328125 C10.17868564 16.27215892 10.09977716 21.41286424 10.04785156 26.59545898 C10.04672228 28.17282584 10.04735852 29.75019479 10.04962158 31.32756042 C10.05076652 35.59579046 10.02729314 39.86356839 9.99932575 44.1316936 C9.97427524 48.59729882 9.97196722 53.06291507 9.96722412 57.52857971 C9.95480505 65.97869605 9.92199795 74.42860473 9.88182616 82.87862974 C9.83707515 92.5013124 9.81511304 102.12400511 9.79504442 111.74676597 C9.75326435 131.53572018 9.68293311 151.32448762 9.59375 171.11328125 C10.27832779 171.31488861 10.96290558 171.51649597 11.66822815 171.72421265 C12.56734421 171.99101837 13.46646027 172.2578241 14.39282227 172.53271484 C15.72906395 172.92793839 15.72906395 172.92793839 17.09230042 173.33114624 C34.76405186 178.85662058 48.2464781 192.4754608 56.83203125 208.46875 C64.7685853 224.17765353 66.48119571 245.0154811 61.765625 261.96484375 C57.94172843 272.23837919 52.96990457 281.93462838 45.59375 290.11328125 C45.09875 290.69980469 44.60375 291.28632813 44.09375 291.890625 C33.53269453 303.53418865 16.49196185 312.06660699 0.86499023 313.3347168 C-22.34275149 314.25971305 -40.60037424 309.8670614 -58.40625 294.11328125 C-59.03015625 293.58347656 -59.6540625 293.05367188 -60.296875 292.5078125 C-71.79890939 282.01609194 -79.28138789 265.02560567 -80.62744141 249.57421875 C-81.5674794 228.06934952 -77.21088231 209.24588536 -62.71484375 192.57421875 C-53.10246078 182.3275161 -41.9968765 175.03459105 -28.40625 171.11328125 C-27.74625 171.11328125 -27.08625 171.11328125 -26.40625 171.11328125 C-26.40993717 170.29513663 -26.41362434 169.47699202 -26.41742325 168.63405514 C-26.5057891 148.71998974 -26.57196685 128.80595818 -26.61349869 108.89173794 C-26.63411741 99.26133111 -26.66222484 89.63105521 -26.70800781 80.00073242 C-26.74789668 71.6062119 -26.77368783 63.21178621 -26.78260398 54.81717354 C-26.78781526 50.37290936 -26.80004924 45.92891647 -26.82917023 41.4847393 C-26.85637177 37.29948073 -26.86468547 33.11460455 -26.85868073 28.92926598 C-26.85977885 27.39541799 -26.86770469 25.86155689 -26.8830719 24.32778549 C-27.03008117 8.89474302 -27.03008117 8.89474302 -20.6875 2.3359375 C-14.3310137 -1.8041424 -7.19282488 -2.65060268 0 0 Z " fill="#000000" transform="translate(264.40625,132.88671875)"/>
<path d="M0 0 C0.79728012 -0.00671722 1.59456024 -0.01343445 2.41600037 -0.02035522 C5.05050909 -0.03934439 7.68476304 -0.04326024 10.31933594 -0.04541016 C12.15533553 -0.05183877 13.9913341 -0.05856717 15.82733154 -0.06558228 C19.6773923 -0.07755827 23.52736333 -0.0812629 27.37744141 -0.08007812 C32.29797978 -0.07987522 37.21793874 -0.10714634 42.13834 -0.14162254 C45.93203341 -0.16392343 49.72558827 -0.16791465 53.51934052 -0.16685867 C55.33253725 -0.16921102 57.14573801 -0.17801384 58.95886993 -0.19352341 C61.50293299 -0.21324297 64.04575838 -0.20732199 66.58984375 -0.1953125 C67.33090866 -0.20655151 68.07197357 -0.21779053 68.835495 -0.22937012 C75.04383962 -0.15534753 80.27276274 1.79346761 84.92871094 5.97412109 C88.84062432 12.07290272 89.05083021 18.20913398 88.05371094 25.29052734 C85.53531042 30.60715065 81.84295416 34.15460923 76.37179565 36.38273621 C72.63620052 37.40475356 69.17851529 37.57886644 65.33935547 37.56518555 C64.59055115 37.57029648 63.84174683 37.57540741 63.07025146 37.58067322 C60.60892618 37.59450815 58.14788286 37.59361695 55.68652344 37.59130859 C53.96548357 37.59519914 52.24444466 37.59953454 50.52340698 37.60429382 C46.92068364 37.61174311 43.31805831 37.61147432 39.71533203 37.60620117 C35.11329827 37.60041104 30.51166756 37.61733268 25.90970039 37.64054585 C22.35620808 37.65532505 18.80281188 37.65614915 15.24929428 37.65303612 C13.55333534 37.65354732 11.85737074 37.65874705 10.1614418 37.66884804 C7.7829851 37.68127557 5.40530112 37.67438348 3.02685547 37.6628418 C1.99010178 37.6743074 1.99010178 37.6743074 0.93240356 37.68600464 C-4.8619481 37.62429568 -10.39684126 36.36749061 -14.96972656 32.64208984 C-19.45800986 26.90850251 -21.58346679 22.80922448 -20.94628906 15.29052734 C-19.34324313 8.21826586 -16.235666 5.11167282 -10.25152588 1.1758728 C-6.87939277 -0.11922309 -3.56218134 -0.0043097 0 0 Z " fill="#000000" transform="translate(380.9462890625,217.70947265625)"/>
<path d="M0 0 C0.8181015 -0.0065712 1.636203 -0.0131424 2.47909546 -0.01991272 C5.19415372 -0.03966749 7.90915655 -0.05131469 10.62426758 -0.0612793 C12.01506248 -0.06739259 12.01506248 -0.06739259 13.43395424 -0.07362938 C18.34382531 -0.09450191 23.25366835 -0.10879708 28.16357422 -0.11816406 C33.22995894 -0.12921585 38.29590292 -0.16359814 43.36213207 -0.20333576 C47.26128441 -0.22951455 51.1603321 -0.23785715 55.05956459 -0.24144554 C56.92662842 -0.24631021 58.79368762 -0.25792079 60.66066551 -0.27648354 C63.27933719 -0.30089633 65.89687377 -0.29990594 68.515625 -0.29296875 C69.28212875 -0.30577881 70.04863251 -0.31858887 70.83836365 -0.33178711 C76.3463517 -0.27880943 79.52562516 1.05882209 84.08129883 4.17700195 C89.08613306 9.57695468 89.43148755 14.02621943 89.36254883 21.16137695 C88.84560636 26.70414902 86.60664832 29.7632634 82.51879883 33.55200195 C78.13414906 36.4751018 74.1179689 36.33635295 69.03320312 36.35400391 C68.2133493 36.3605751 67.39349548 36.3671463 66.54879761 36.37391663 C63.83437 36.39363475 61.11999765 36.40530852 58.40551758 36.4152832 C57.4779899 36.41935873 56.55046223 36.42343426 55.59482765 36.42763329 C50.68610482 36.44848706 45.77740989 36.46279213 40.86865234 36.47216797 C35.80107758 36.48323476 30.73394163 36.51763975 25.66652203 36.55733967 C21.76741219 36.58349387 17.86840714 36.59185871 13.9692173 36.59544945 C12.10132697 36.600318 10.23344141 36.61193966 8.36563683 36.63048744 C5.749264 36.65485505 3.13402986 36.65391848 0.51757812 36.64697266 C-0.63521385 36.66618774 -0.63521385 36.66618774 -1.81129456 36.68579102 C-7.00644268 36.6356264 -9.9075324 35.43548961 -13.91870117 32.17700195 C-18.40437064 27.3175267 -20.43410411 23.01534918 -20.23120117 16.29418945 C-19.4417367 10.94556764 -16.87475792 6.7204033 -12.79370117 3.23950195 C-8.35825584 0.05755204 -5.31920784 0.01841666 0 0 Z " fill="#000000" transform="translate(379.918701171875,63.822998046875)"/>
<path d="M0 0 C0.93494797 -0.01606293 1.86989594 -0.03212585 2.83317566 -0.04867554 C7.11371013 -0.09330603 11.39409163 -0.13420361 15.67480469 -0.15722656 C17.92783962 -0.17376319 20.18082258 -0.20102263 22.43359375 -0.23925781 C25.69078651 -0.29422548 28.94675059 -0.31593313 32.2043457 -0.33056641 C33.70320564 -0.36457047 33.70320564 -0.36457047 35.23234558 -0.39926147 C41.84024775 -0.37945229 46.30811551 0.83932895 51.38012695 5.19287109 C55.54418924 10.29384739 56.07073211 14.71850388 55.82543945 21.25146484 C55.02770075 26.5207389 52.86937267 30.28704234 48.63012695 33.53271484 C44.27232833 36.17181272 40.31772054 37.30462719 35.28930664 37.35400391 C34.09721588 37.36841522 34.09721588 37.36841522 32.88104248 37.38311768 C32.02995911 37.38736755 31.17887573 37.39161743 30.30200195 37.39599609 C29.41659729 37.40169617 28.53119263 37.40739624 27.61895752 37.41326904 C25.74622792 37.42270501 23.87348182 37.42924744 22.00073242 37.43310547 C19.1542413 37.44278906 16.30847933 37.47381652 13.4621582 37.50537109 C11.63794372 37.51190404 9.81372409 37.51715336 7.98950195 37.52099609 C7.1465155 37.5333429 6.30352905 37.5456897 5.43499756 37.55841064 C-0.85011328 37.53504709 -6.60728481 36.64714182 -11.64331055 32.54443359 C-15.76580048 27.27813143 -18.14270834 23.27741502 -17.93237305 16.31005859 C-17.14784368 10.99487213 -14.58456149 6.75028775 -10.55737305 3.25537109 C-6.8875389 0.67867904 -4.37079051 0.06838858 0 0 Z " fill="#000000" transform="translate(377.619873046875,140.80712890625)"/>
</svg>
