<?xml version="1.0" encoding="UTF-8"?>
<svg version="1.1" xmlns="http://www.w3.org/2000/svg" width="512" height="512">
<path d="M0 0 C3.20039344 2.92964432 5.14875637 5.80927736 7.1875 9.625 C11.92269912 17.91920317 17.84592696 26.40375702 27 30 C34.33536734 31.09579301 38.92974363 29.15571192 44.9375 24.9375 C52.45630829 18.35854274 57.15613642 8.56877995 62 0 C62.99 0.495 62.99 0.495 64 1 C64.53076172 2.69897461 64.53076172 2.69897461 64.9296875 4.90234375 C65.15966431 6.10745605 65.15966431 6.10745605 65.39428711 7.33691406 C65.63223999 8.6242041 65.63223999 8.6242041 65.875 9.9375 C67.99389528 20.61030713 70.32091365 32.29428007 79.75 38.9375 C86.71892922 41.21580378 92.65048417 40.38054124 99.31640625 37.46875 C105.98871148 33.81694976 111.85710331 28.86131425 117.625 23.9375 C120 22 120 22 122 22 C121.855625 22.88558594 121.71125 23.77117188 121.5625 24.68359375 C118.39725473 43.81660251 118.39725473 43.81660251 123 62 C126.6745289 66.44811394 130.0054634 68.5935986 135.734375 69.37109375 C145.49679295 69.58606927 153.85944913 67.08247208 163 64 C164.15628906 63.61585937 165.31257813 63.23171875 166.50390625 62.8359375 C167.32761719 62.56007812 168.15132813 62.28421875 169 62 C168.41774374 66.6315839 166.39512957 70.19805132 164.125 74.1875 C158.88193275 83.73587846 154.97421522 92.65653019 158 103.625 C160.87703188 108.4799913 164.97659349 111.48829674 170 114 C175.25848474 114.41243018 179.67340214 113.67655372 184.8125 112.5 C207.07567526 107.64309396 229.78450126 112.25712051 249.15625 124.05859375 C253.87539151 127.28031536 257.95927342 130.97258718 262 135 C262.77214844 135.74894531 263.54429687 136.49789062 264.33984375 137.26953125 C278.37987152 151.74155987 283.61366281 169.68064372 283.47973633 189.49853516 C283.23806232 197.85671652 281.74753465 205.11191666 279 213 C278.69191406 213.96035156 278.38382812 214.92070312 278.06640625 215.91015625 C277.4074778 217.94999697 276.70972857 219.97727357 276 222 C276.8971875 222.268125 277.794375 222.53625 278.71875 222.8125 C304.74482223 230.98597723 326.60472648 245.822494 340 270 C349.83686578 289.10669419 350.20907714 310.17067386 343.93359375 330.4453125 C339.71396354 342.22685427 332.43613673 355.46646625 321.6953125 362.51171875 C319.19679343 364.23239698 318.09351245 365.14184942 317 368 C317.67526451 371.80077453 318.68290393 375.30196643 319.84619141 378.97338867 C326.43779635 400.64591134 321.32032681 425.16100318 311.03125 444.88671875 C305.94257871 454.0983195 299.47889086 461.64875305 292 469 C290.85724609 470.14082031 290.85724609 470.14082031 289.69140625 471.3046875 C270.73095074 489.18665838 244.657044 496.91572085 219.04296875 496.3125 C192.4454438 495.0688986 168.18831096 483.23103218 150.01953125 463.8984375 C133.22840092 445.25273882 125.92342729 422.80516744 125 398 C124.21496094 398.20496094 123.42992187 398.40992188 122.62109375 398.62109375 C121.57050781 398.89050781 120.51992188 399.15992188 119.4375 399.4375 C117.88869141 399.83775391 117.88869141 399.83775391 116.30859375 400.24609375 C92.84982133 405.59148109 66.60994819 401.97311833 45.625 390.1875 C35.32781433 383.56540417 26.72940104 374.79771734 21 364 C19.99839844 364.34933594 18.99679688 364.69867188 17.96484375 365.05859375 C16.62250748 365.51855513 15.2800532 365.97817219 13.9375 366.4375 C13.28072266 366.66759766 12.62394531 366.89769531 11.94726562 367.13476562 C-3.98122197 372.5488821 -21.46976166 370.7594767 -36.48046875 363.375 C-40.53048136 361.16476056 -44.31008865 358.77073988 -48 356 C-48.73992187 355.44957031 -49.47984375 354.89914062 -50.2421875 354.33203125 C-62.02334549 344.77257952 -69.76113595 329.91891365 -72 315 C-72.22578951 310.64132592 -72.19045671 306.30044147 -72.125 301.9375 C-72.11597656 300.78572266 -72.10695313 299.63394531 -72.09765625 298.44726562 C-72.07428714 295.63128807 -72.04152565 292.81575842 -72 290 C-81.92467697 290.18768449 -89.94899948 292.37315777 -99.2265625 295.72265625 C-103 297 -103 297 -106 297 C-104.06016646 291.80690397 -101.48189922 286.96530683 -98.921875 282.05859375 C-94.73378664 273.85431617 -92.99756649 266.227529 -94 257 C-96.39221664 251.51783688 -100.63997242 248.41726734 -106 246 C-112.60480904 243.98920258 -119.13463469 243.39913928 -126 242.875 C-127.59134766 242.74544922 -127.59134766 242.74544922 -129.21484375 242.61328125 C-131.80948029 242.40290531 -134.4044421 242.1986266 -137 242 C-134.33853045 239.30879336 -131.65338123 236.66449504 -128.87890625 234.08984375 C-120.97005239 226.64191728 -114.23109481 219.38656889 -112.375 208.25 C-113.62979223 201.72508039 -116.38017088 196.65815829 -121.62109375 192.50390625 C-127.08246023 189.05131824 -133.09166135 186.58015226 -139 184 C-140.81262261 183.18777357 -142.62514791 182.37532986 -144.4375 181.5625 C-145.613125 181.046875 -146.78875 180.53125 -148 180 C-145.38325512 177.38325512 -142.39731016 176.51942503 -139 175.25 C-128.97401171 171.34063064 -120.324633 167.07110972 -114 158 C-112.05885445 152.17656334 -112.41533861 147.62868551 -114.9375 142.125 C-119.8467265 133.12015476 -127.45986988 126.35667281 -135.12890625 119.71484375 C-135.74636719 119.14894531 -136.36382812 118.58304687 -137 118 C-137 117.67 -137 117.34 -137 117 C-135.11667969 116.92652344 -135.11667969 116.92652344 -133.1953125 116.8515625 C-113.44543978 116.55716648 -113.44543978 116.55716648 -96.484375 107.5390625 C-92.88453751 102.34211401 -93.17064768 96.03099186 -94 90 C-96.30550492 81.62469231 -100.38415019 74.09447291 -104.64453125 66.58203125 C-106 64 -106 64 -106 62 C-105.44054687 62.17015625 -104.88109375 62.3403125 -104.3046875 62.515625 C-102.57470715 63.03851295 -100.84270488 63.55473119 -99.109375 64.06640625 C-96.94552903 64.71610372 -94.78964214 65.39266261 -92.640625 66.08984375 C-83.6824758 68.886777 -74.48299531 71.31956252 -65.5 67.375 C-60.64908008 64.48658918 -58.26545552 60.5298592 -56.6875 55.1875 C-55.28613462 47.92252685 -56.36380288 40.31801468 -57 33 C-57.09796875 31.83082031 -57.1959375 30.66164063 -57.296875 29.45703125 C-57.51570501 26.96944894 -57.74780533 24.48438576 -58 22 C-54.48197326 23.5320439 -51.99075057 25.65710322 -49.125 28.1875 C-41.28356311 34.65747063 -31.74687191 41.36347311 -21.1171875 40.4921875 C-15.56875763 39.20233111 -12.0647795 35.59716925 -9 31 C-5.54747239 24.4035506 -3.77624705 17.68957325 -2.25 10.4375 C-1.91935547 8.92446289 -1.91935547 8.92446289 -1.58203125 7.38085938 C-1.04604246 4.92230209 -0.51889949 2.46221012 0 0 Z " fill="#B0D2EF" transform="translate(156,8)"/>
<path d="M0 0 C0.81726563 -0.03738281 1.63453125 -0.07476562 2.4765625 -0.11328125 C7.97151521 0.69392878 12.62405483 2.94295554 16.078125 7.3671875 C16.94597123 8.6278287 17.79362888 9.90251153 18.625 11.1875 C19.35529419 12.26825806 19.35529419 12.26825806 20.1003418 13.37084961 C21.22341068 15.03940424 22.33760344 16.71395343 23.44482422 18.39306641 C25.22435707 21.08464923 27.02341527 23.76156036 28.83081055 26.43443298 C48.39163134 55.36234956 67.3051982 84.74379425 82.375 116.3125 C82.71225098 117.01310547 83.04950195 117.71371094 83.39697266 118.43554688 C85.77061922 123.3730816 88.09095337 128.33294713 90.375 133.3125 C90.86097656 134.36050781 91.34695313 135.40851563 91.84765625 136.48828125 C102.27503559 160.0535208 102.18336513 185.34528754 92.9765625 209.32714844 C87.52346426 222.65478021 79.5941827 233.26773038 69.375 243.3125 C68.61316406 244.07304687 67.85132813 244.83359375 67.06640625 245.6171875 C48.10595074 263.49915838 22.032044 271.22822085 -3.58203125 270.625 C-30.1795562 269.3813986 -54.43668904 257.54353218 -72.60546875 238.2109375 C-89.02148757 219.98178114 -98.4732691 195.95269773 -97.625 171.3125 C-97.60824219 170.52617187 -97.59148437 169.73984375 -97.57421875 168.9296875 C-96.41156489 147.20466968 -85.57567343 126.39620395 -75.72460938 107.43798828 C-74.52582968 105.12080888 -73.3490023 102.79309204 -72.171875 100.46484375 C-65.30763195 86.99953168 -57.66234792 74.1069391 -49.625 61.3125 C-48.95710449 60.24821777 -48.28920898 59.18393555 -47.60107422 58.08740234 C-40.66381259 47.06651602 -33.70324622 36.09523262 -25.99609375 25.59375 C-24.19490654 23.13418728 -22.47868599 20.62864034 -20.78515625 18.09375 C-20.30022705 17.37131104 -19.81529785 16.64887207 -19.31567383 15.90454102 C-18.38763752 14.51665414 -17.46634545 13.12422176 -16.5534668 11.72631836 C-12.40594831 5.55025055 -7.85379236 0.23099389 0 0 Z " fill="#3B97D3" transform="translate(378.625,233.6875)"/>
<path d="M0 0 C12.99378921 10.79053087 22.87693441 22.97467841 30.609375 38.01171875 C31.11766846 38.99277588 31.11766846 38.99277588 31.63623047 39.99365234 C33.6909169 44.17439068 34.94225333 47.90717545 35.109375 52.63671875 C34.0703125 55.0859375 34.0703125 55.0859375 32.484375 57.32421875 C24.64645207 69.50846089 22.70741775 81.47523408 21.109375 95.63671875 C20.31672241 95.24347412 20.31672241 95.24347412 19.50805664 94.84228516 C17.0675069 93.63864616 14.61985648 92.45016545 12.171875 91.26171875 C11.34107422 90.84921875 10.51027344 90.43671875 9.65429688 90.01171875 C-4.91681187 82.98130052 -22.01293767 82.09903223 -37.36010742 87.37646484 C-52.06522232 92.91926303 -64.03380452 102.28025087 -70.890625 116.63671875 C-76.00821134 128.11930309 -76.26088424 139.61196664 -72.890625 151.63671875 C-72.21462434 154.30110697 -71.55338 156.96899063 -70.890625 159.63671875 C-71.84582031 159.16621094 -72.80101562 158.69570313 -73.78515625 158.2109375 C-75.09091143 157.58154472 -76.39691472 156.95266649 -77.703125 156.32421875 C-78.32638672 156.01548828 -78.94964844 155.70675781 -79.59179688 155.38867188 C-88.91073508 150.93993253 -97.96333222 149.09040704 -108.265625 149.19921875 C-109.27004639 149.20606689 -110.27446777 149.21291504 -111.30932617 149.2199707 C-119.14257578 149.38889709 -125.66867896 150.44418466 -132.890625 153.63671875 C-133.82261719 154.04535156 -134.75460938 154.45398438 -135.71484375 154.875 C-139.45135397 156.6368873 -142.57103193 158.37270708 -145.765625 161.01171875 C-147.890625 162.63671875 -147.890625 162.63671875 -149.7578125 162.53125 C-159.92384845 158.26747302 -167.56716022 140.0123302 -171.640625 130.51171875 C-172.40917306 128.56059002 -173.15947766 126.60216858 -173.890625 124.63671875 C-174.26058594 123.64929688 -174.63054687 122.661875 -175.01171875 121.64453125 C-184.1274339 95.9335398 -182.12173226 66.09345521 -170.81445312 41.38208008 C-157.19607724 13.35663306 -134.45149473 -7.77159115 -104.9921875 -18.37109375 C-68.95314008 -29.89995778 -29.87786677 -23.27786181 0 0 Z " fill="#EFC419" transform="translate(256.890625,100.36328125)"/>
<path d="M0 0 C3.20039344 2.92964432 5.14875637 5.80927736 7.1875 9.625 C11.92269912 17.91920317 17.84592696 26.40375702 27 30 C34.33536734 31.09579301 38.92974363 29.15571192 44.9375 24.9375 C52.45630829 18.35854274 57.15613642 8.56877995 62 0 C62.99 0.495 62.99 0.495 64 1 C64.53076172 2.69897461 64.53076172 2.69897461 64.9296875 4.90234375 C65.15966431 6.10745605 65.15966431 6.10745605 65.39428711 7.33691406 C65.63223999 8.6242041 65.63223999 8.6242041 65.875 9.9375 C67.99389528 20.61030713 70.32091365 32.29428007 79.75 38.9375 C86.71892922 41.21580378 92.65048417 40.38054124 99.31640625 37.46875 C105.98871148 33.81694976 111.85710331 28.86131425 117.625 23.9375 C120 22 120 22 122 22 C121.855625 22.88558594 121.71125 23.77117188 121.5625 24.68359375 C118.39725473 43.81660251 118.39725473 43.81660251 123 62 C126.6745289 66.44811394 130.0054634 68.5935986 135.734375 69.37109375 C145.49679295 69.58606927 153.85944913 67.08247208 163 64 C164.15628906 63.61585937 165.31257813 63.23171875 166.50390625 62.8359375 C167.32761719 62.56007812 168.15132813 62.28421875 169 62 C168.41774374 66.6315839 166.39512957 70.19805132 164.125 74.1875 C158.88193275 83.73587846 154.97421522 92.65653019 158 103.625 C161.24429642 109.0997502 165.62753198 112.06795899 171.5 114.375 C172.7375 114.684375 172.7375 114.684375 174 115 C172.35016338 118.29967324 168.72271627 119.17487749 165.5 120.6875 C159.01754975 123.82733608 153.44465364 127.2415527 148 132 C147.03320312 132.77150391 147.03320312 132.77150391 146.046875 133.55859375 C142.18578861 136.68153127 139.54146221 139.73034348 137 144 C135.74484043 141.50879497 134.51805682 139.00619992 133.30078125 136.49609375 C126.71454374 122.98671825 119.41796768 111.82345744 109 101 C108.42765625 100.35289063 107.8553125 99.70578125 107.265625 99.0390625 C92.55014966 82.88238082 65.52727051 71.2615315 44 70 C30.1100939 69.4118667 16.45553583 69.12430559 3 73 C1.77667969 73.3403125 0.55335938 73.680625 -0.70703125 74.03125 C-28.80016476 82.59517123 -51.94197256 102.32756952 -66 128 C-78.78652581 152.32542468 -82.89364974 182.41820424 -75 209 C-70.02912538 224.21080856 -63.16380488 237.82745228 -53.13671875 250.3203125 C-51 253 -51 253 -49 256 C-49.4846875 256.42667969 -49.969375 256.85335938 -50.46875 257.29296875 C-60.08422163 266.26124518 -66.05990202 277.57353713 -70 290 C-71.155 289.9175 -72.31 289.835 -73.5 289.75 C-83.53404801 289.73409818 -93.75872038 293.37596878 -103 297 C-103.99 297 -104.98 297 -106 297 C-104.06016646 291.80690397 -101.48189922 286.96530683 -98.921875 282.05859375 C-94.73378664 273.85431617 -92.99756649 266.227529 -94 257 C-96.39221664 251.51783688 -100.63997242 248.41726734 -106 246 C-112.60480904 243.98920258 -119.13463469 243.39913928 -126 242.875 C-127.59134766 242.74544922 -127.59134766 242.74544922 -129.21484375 242.61328125 C-131.80948029 242.40290531 -134.4044421 242.1986266 -137 242 C-134.33853045 239.30879336 -131.65338123 236.66449504 -128.87890625 234.08984375 C-120.97005239 226.64191728 -114.23109481 219.38656889 -112.375 208.25 C-113.62979223 201.72508039 -116.38017088 196.65815829 -121.62109375 192.50390625 C-127.08246023 189.05131824 -133.09166135 186.58015226 -139 184 C-140.81262261 183.18777357 -142.62514791 182.37532986 -144.4375 181.5625 C-145.613125 181.046875 -146.78875 180.53125 -148 180 C-145.38325512 177.38325512 -142.39731016 176.51942503 -139 175.25 C-128.97401171 171.34063064 -120.324633 167.07110972 -114 158 C-112.05885445 152.17656334 -112.41533861 147.62868551 -114.9375 142.125 C-119.8467265 133.12015476 -127.45986988 126.35667281 -135.12890625 119.71484375 C-135.74636719 119.14894531 -136.36382812 118.58304687 -137 118 C-137 117.67 -137 117.34 -137 117 C-135.11667969 116.92652344 -135.11667969 116.92652344 -133.1953125 116.8515625 C-113.44543978 116.55716648 -113.44543978 116.55716648 -96.484375 107.5390625 C-92.88453751 102.34211401 -93.17064768 96.03099186 -94 90 C-96.30550492 81.62469231 -100.38415019 74.09447291 -104.64453125 66.58203125 C-106 64 -106 64 -106 62 C-105.44054687 62.17015625 -104.88109375 62.3403125 -104.3046875 62.515625 C-102.57470715 63.03851295 -100.84270488 63.55473119 -99.109375 64.06640625 C-96.94552903 64.71610372 -94.78964214 65.39266261 -92.640625 66.08984375 C-83.6824758 68.886777 -74.48299531 71.31956252 -65.5 67.375 C-60.64908008 64.48658918 -58.26545552 60.5298592 -56.6875 55.1875 C-55.28613462 47.92252685 -56.36380288 40.31801468 -57 33 C-57.09796875 31.83082031 -57.1959375 30.66164063 -57.296875 29.45703125 C-57.51570501 26.96944894 -57.74780533 24.48438576 -58 22 C-54.48197326 23.5320439 -51.99075057 25.65710322 -49.125 28.1875 C-41.28356311 34.65747063 -31.74687191 41.36347311 -21.1171875 40.4921875 C-15.56875763 39.20233111 -12.0647795 35.59716925 -9 31 C-5.54747239 24.4035506 -3.77624705 17.68957325 -2.25 10.4375 C-1.91935547 8.92446289 -1.91935547 8.92446289 -1.58203125 7.38085938 C-1.04604246 4.92230209 -0.51889949 2.46221012 0 0 Z " fill="#F8E9AF" transform="translate(156,8)"/>
<path d="M0 0 C4.42449979 0.86909817 5.71148762 2.18772855 8.5 5.6875 C10.03115599 14.41105979 8.52984367 23.44724334 5.5 31.6875 C4.89671875 33.35425781 4.89671875 33.35425781 4.28125 35.0546875 C-3.05905391 53.69090353 -16.09973124 66.93816733 -34.0625 75.4375 C-44.38500704 79.92041734 -55.16361021 82.89533453 -66.5 81.6875 C-70.46867008 79.70316496 -71.22726349 78.50570954 -72.625 74.3125 C-72.48950594 70.38317235 -71.65078827 68.86922403 -69.07373047 65.96289062 C-66.30941467 63.7226198 -63.46233031 63.8124293 -60 63.625 C-44.44853325 62.31939639 -30.62833735 55.38979157 -20.50390625 43.41796875 C-13.51347625 33.89299688 -9.81141163 23.06949913 -9.125 11.3125 C-8.84621762 7.9885562 -8.33673548 5.788548 -6.375 3.0625 C-3.5 0.6875 -3.5 0.6875 0 0 Z " fill="#FBFDFE" transform="translate(443.5,396.3125)"/>
<path d="M0 0 C16.71334922 4.35281732 29.59780696 13.36119499 38.4921875 28.30078125 C42.45177107 35.82545114 43.50329863 43.88647714 42.4921875 52.30078125 C40.4296875 55.55078125 40.4296875 55.55078125 37.4921875 57.30078125 C33.9921875 57.98828125 33.9921875 57.98828125 30.4921875 57.30078125 C26.91008521 54.51470169 25.76265004 52.79420483 24.953125 48.32421875 C24.75589844 46.67292969 24.75589844 46.67292969 24.5546875 44.98828125 C23.48006612 36.25200746 19.41477897 30.05869613 12.51171875 24.64453125 C4.66848998 19.42582584 -2.85045237 17.67037525 -12.125 17.05078125 C-16.32440312 16.11973575 -17.87193108 14.64480992 -20.5078125 11.30078125 C-21.27094849 7.02721969 -20.97996606 5.09332472 -18.7578125 1.36328125 C-12.82103126 -2.40429146 -6.68075645 -1.33168753 0 0 Z " fill="#FDFEFE" transform="translate(370.5078125,145.69921875)"/>
<path d="M0 0 C4.4297642 0.79102932 5.89210172 1.98974785 8.5 5.625 C9.21235686 9.4242366 8.81263988 11.06224821 6.9375 14.4375 C3.73003157 17.31599731 1.7850666 17.70017661 -2.5 17.625 C-5.30189446 15.85858828 -7.01524911 14.59450178 -8.5 11.625 C-9.03507099 7.6119676 -8.83051628 6.08571967 -6.4375 2.75 C-3.5 0.625 -3.5 0.625 0 0 Z " fill="#F8E8AA" transform="translate(119.5,153.375)"/>
<path d="M0 0 C3.32199976 2.12948703 3.89590149 3.6632107 5.0625 7.4375 C5 11 5 11 2.625 13.875 C1.75875 14.57625 0.8925 15.2775 0 16 C-0.33 16.33 -0.66 16.66 -1 17 C-4.70012175 16.79055915 -7.29249738 16.45352732 -10.4375 14.4375 C-12.66872394 10.95679065 -12.79126072 8.02224201 -12 4 C-9.1635787 -0.72736883 -5.07159122 -1.01015267 0 0 Z " fill="#F8E8AA" transform="translate(166,154)"/>
<path d="M0 0 C3.32961021 0.55493503 5.30091917 1.49496853 8 3.5 C9.3899408 6.2798816 9.18488204 8.4186326 9 11.5 C8.13676251 14.08971247 7.46898968 15.16500737 5.25 16.75 C2.18326628 17.77224457 0.2167207 18.02517889 -3 17.5 C-6.16041435 14.61440429 -7.76419058 12.65546616 -8.625 8.4375 C-7.57145969 3.48586054 -5.01969279 0.83661547 0 0 Z " fill="#F8E8AB" transform="translate(153,110.5)"/>
</svg>
