<?xml version="1.0" encoding="UTF-8"?>
<svg version="1.1" xmlns="http://www.w3.org/2000/svg" width="512" height="512">
<path d="M0 0 C3.45889721 2.60021993 5.17003402 5.84910071 7.1875 9.625 C13.29679854 20.31952901 22.77786096 31.72540493 34.9765625 35.55859375 C41.93199035 37.07589751 47.07322704 36.16037408 53.32421875 32.7578125 C57.56054138 29.97482683 61.33523918 26.67816777 65.17578125 23.38671875 C73.87461391 16.0354231 73.87461391 16.0354231 79.75 15.9375 C84.11502946 17.36452886 86.11388556 19.50841646 88.44458008 23.43164062 C88.88181396 24.33076172 89.31904785 25.22988281 89.76953125 26.15625 C90.26275879 27.16937256 90.75598633 28.18249512 91.26416016 29.22631836 C91.7751123 30.3066333 92.28606445 31.38694824 92.8125 32.5 C93.34149902 33.61189697 93.87049805 34.72379395 94.41552734 35.86938477 C102.74480019 53.69362097 108.4017919 70.26428492 108.3125 90.0625 C108.30758545 91.34729248 108.3026709 92.63208496 108.29760742 93.95581055 C107.8154942 133.17015794 89.52980866 167.43443361 62.3203125 194.68359375 C35.89316527 219.81683021 0.67076988 232.22161902 -35.375 232.25 C-36.14044128 232.25067474 -36.90588257 232.25134949 -37.69451904 232.25204468 C-48.74808436 232.23653019 -59.26992455 231.90727833 -70 229 C-70.97428955 228.74259033 -70.97428955 228.74259033 -71.96826172 228.47998047 C-109.61060111 218.33748642 -141.55606756 194.38620153 -161.31445312 160.76318359 C-172.48621827 141.27018102 -180.13304267 119.47683651 -180.16796875 96.78515625 C-180.17129715 96.011754 -180.17462555 95.23835175 -180.17805481 94.44151306 C-180.18309384 92.80858957 -180.18546408 91.17565587 -180.18530273 89.54272461 C-180.18746628 87.1005651 -180.20559046 84.65887533 -180.22460938 82.21679688 C-180.32614723 54.4786916 -180.32614723 54.4786916 -176 48 C-174.37451172 46.5871582 -174.37451172 46.5871582 -172.4296875 45.30078125 C-171.34457886 44.57701294 -171.34457886 44.57701294 -170.23754883 43.83862305 C-169.45790771 43.33500244 -168.6782666 42.83138184 -167.875 42.3125 C-167.06893311 41.78503174 -166.26286621 41.25756348 -165.43237305 40.71411133 C-127.22878167 15.98268714 -127.22878167 15.98268714 -106.21875 15.37109375 C-102.86746542 16.32101772 -101.31293071 18.45039731 -99 21 C-90.23837539 30.14753629 -82.62838514 37.89120034 -69.375 38.3125 C-65.09256994 38.39047142 -63.28024431 37.71443797 -60 35 C-59.34 35 -58.68 35 -58 35 C-57.78085938 34.47277344 -57.56171875 33.94554687 -57.3359375 33.40234375 C-55.50553056 30.1108225 -53.08303217 27.39247124 -50.625 24.5625 C-49.65822916 23.43933976 -48.69207366 22.31564954 -47.7265625 21.19140625 C-47.02333862 20.37845093 -47.02333862 20.37845093 -46.3059082 19.54907227 C-45.1645119 18.19514452 -44.08607526 16.78864413 -43.01953125 15.375 C-32.72033937 3.26299098 -15.57372036 -2.5735431 0 0 Z " fill="#2E98FB" transform="translate(292,248)"/>
<path d="M0 0 C3.8125 0.625 3.8125 0.625 6.01928711 2.01538086 C8.83526736 6.11340849 8.3573723 10.14436178 8.31640625 15.00390625 C8.32863472 16.55087944 8.32863472 16.55087944 8.34111023 18.12910461 C8.35813458 20.33689854 8.36717824 22.54476571 8.36901855 24.75262451 C8.37900171 30.48550129 8.46279893 36.21708088 8.55078125 41.94921875 C8.56748871 43.06850769 8.58419617 44.18779663 8.60140991 45.34100342 C8.81463032 57.57056246 9.88831167 69.54163552 11.8125 81.625 C11.98797363 82.75905273 12.16344727 83.89310547 12.34423828 85.06152344 C21.36116774 142.21282955 45.69060862 193.81463325 73.66894531 243.99536133 C97.18044461 286.48277797 111.80564944 329.97233093 99.8125 378.625 C99.49901611 379.90455566 99.49901611 379.90455566 99.17919922 381.20996094 C91.29005817 412.23467293 74.72213963 438.61821605 52.8125 461.625 C51.83216797 462.68460937 51.83216797 462.68460937 50.83203125 463.765625 C28.57980052 487.10911651 -3.17295809 502.26038776 -34.1875 509.625 C-34.86039063 509.79161133 -35.53328125 509.95822266 -36.2265625 510.12988281 C-60.5844118 515.89696184 -90.08471976 514.75760445 -114.1875 508.625 C-115.03328613 508.41601074 -115.87907227 508.20702148 -116.75048828 507.99169922 C-147.77405442 500.11035559 -174.19317251 483.55057705 -197.1875 461.625 C-197.97898438 460.88636719 -198.77046875 460.14773438 -199.5859375 459.38671875 C-221.13323377 438.70887478 -235.84397542 409.63470563 -243.4375 381.0625 C-243.68387207 380.14138428 -243.93024414 379.22026855 -244.18408203 378.27124023 C-247.76437716 364.20862284 -248.59545011 350.43264807 -248.5625 336 C-248.56195618 335.10137238 -248.56141235 334.20274475 -248.56085205 333.27688599 C-248.39950147 275.00931748 -226.67701497 217.94893981 -193.1875 170.625 C-192.35932076 169.43883995 -191.53119661 168.25264144 -190.703125 167.06640625 C-181.80716951 154.40431767 -172.29359179 142.33994412 -162.1875 130.625 C-161.23037109 129.51511719 -161.23037109 129.51511719 -160.25390625 128.3828125 C-158.57628154 126.45335036 -156.88282137 124.53892621 -155.1875 122.625 C-154.27713989 121.58738525 -154.27713989 121.58738525 -153.34838867 120.52880859 C-147.40822569 113.8301618 -141.17946527 107.46299553 -134.83959961 101.14672852 C-133.1204133 99.43292767 -131.40667417 97.71380918 -129.69335938 95.99414062 C-124.02743697 90.32438049 -118.32141549 84.79305204 -112.1875 79.625 C-111.02248829 78.61698141 -109.85840999 77.60788294 -108.6953125 76.59765625 C-97.81676795 67.22259896 -86.61439456 58.32086055 -75.1875 49.625 C-74.57100586 49.15545898 -73.95451172 48.68591797 -73.31933594 48.20214844 C-57.35637249 36.06964699 -41.15515232 24.12004661 -23.78515625 14.05859375 C-23.03169922 13.6217627 -22.27824219 13.18493164 -21.50195312 12.73486328 C-20.05061722 11.89874023 -18.59515619 11.06971722 -17.13476562 10.24951172 C-12.91140693 7.82907772 -9.36394191 5.20145578 -5.84423828 1.8293457 C-3.81615951 0.35505856 -2.49060928 0.11970237 0 0 Z M-18.875 30.9375 C-20.02077515 31.61365356 -20.02077515 31.61365356 -21.18969727 32.3034668 C-28.19006136 36.50658546 -34.69695846 41.22278644 -41.20263672 46.14355469 C-44.06420386 48.27934675 -46.97442135 50.34486527 -49.88208008 52.41723633 C-58.27715414 58.40838364 -66.38527891 64.67057807 -74.38623047 71.17529297 C-76.80227567 73.11978693 -79.25259411 75.01837608 -81.70361328 76.91845703 C-87.23005866 81.20712285 -92.56784844 85.60903092 -97.7109375 90.359375 C-99.77909368 92.25137907 -101.87286603 94.099082 -103.98828125 95.9375 C-108.0716085 99.50088866 -112.05146832 103.1632925 -116 106.875 C-116.692146 107.5254126 -117.38429199 108.1758252 -118.09741211 108.84594727 C-125.84746102 116.15570354 -133.54232886 123.50566418 -140.4609375 131.62109375 C-142.40491046 133.87733386 -144.42073518 136.05863893 -146.4375 138.25 C-151.4807058 143.84693617 -156.10119169 149.72867889 -160.69433594 155.69482422 C-162.22410009 157.67231201 -163.77098928 159.63546656 -165.3203125 161.59765625 C-200.65678892 206.6507263 -231.0514437 265.5498358 -231.390625 324.0859375 C-231.39917511 325.2700975 -231.39917511 325.2700975 -231.40789795 326.47817993 C-231.41728961 328.14380582 -231.42385852 329.8094498 -231.42773438 331.47509766 C-231.43734147 333.95901272 -231.46837916 336.44206309 -231.5 338.92578125 C-231.5977857 353.55383064 -229.86006525 367.75966287 -225.4375 381.75 C-225.18073486 382.57854492 -224.92396973 383.40708984 -224.65942383 384.26074219 C-214.87387247 414.92704149 -196.0307004 443.2159389 -170.1875 462.625 C-169.17816406 463.41132813 -168.16882813 464.19765625 -167.12890625 465.0078125 C-150.28852256 477.83737603 -131.41850572 485.780915 -111.1875 491.625 C-109.96160156 491.98335938 -108.73570312 492.34171875 -107.47265625 492.7109375 C-72.92503914 501.33716575 -34.95500618 496.02742724 -3.1875 480.625 C-2.51541504 480.30273438 -1.84333008 479.98046875 -1.15087891 479.6484375 C35.69670692 461.72110774 64.74279259 428.93684877 78.27026367 390.30883789 C87.05055206 364.01322135 91.95090262 333.50851899 82.8125 306.625 C82.5870752 305.92036621 82.36165039 305.21573242 82.12939453 304.48974609 C72.83284693 275.69127581 56.93403044 248.57358649 42.72729492 221.93701172 C12.38705206 164.97035996 -6.8520721 105.67620803 -8.75 40.9375 C-8.79332087 39.54230839 -8.83693878 38.14712598 -8.88085938 36.75195312 C-8.98598102 33.3763804 -9.08812877 30.00074607 -9.1875 26.625 C-12.79576771 26.625 -15.82914473 29.13905531 -18.875 30.9375 Z " fill="#4DACFC" transform="translate(328.1875,-0.625)"/>
<path d="M0 0 C2.52431168 1.66180089 3.78065766 3.00090973 4.43774414 5.99389648 C4.70545935 8.47503813 4.8650506 10.94566515 5 13.4375 C6.15814027 27.66753013 10.52573559 38.62431744 17.11499023 51.22412109 C22.55782778 61.68429748 25.00324167 71.37095585 21.875 83.125 C18.14511312 93.86776174 11.51397601 102.75653773 1.49609375 108.4140625 C-8.88785015 113.16980617 -22.14686811 114.06570719 -33.0625 110.4375 C-44.5774501 105.42178554 -52.03198056 96.91481413 -57.01953125 85.6484375 C-61.85735575 72.5805291 -58.93816892 57.89328272 -53.45703125 45.515625 C-44.30191223 27.6662854 -29.61532922 13.86709663 -13 3 C-12.12472656 2.42378906 -11.24945313 1.84757812 -10.34765625 1.25390625 C-6.58296249 -0.75685364 -4.23664964 -0.47073885 0 0 Z " fill="#6BC4FF" transform="translate(442,88)"/>
<path d="M0 0 C2.5 1.5 2.5 1.5 4 4 C4.71437409 7.89658593 5.09561668 10.3707666 2.84614563 13.71583557 C-3.12674433 20.25796308 -9.37578864 26.52086835 -15.64453125 32.77734375 C-16.8629948 33.99648203 -18.08130996 35.21576863 -19.29948425 36.43519592 C-21.83695257 38.97412988 -24.37619923 41.51126776 -26.91674805 44.04711914 C-30.17633244 47.30097024 -33.43135736 50.55933992 -36.68509388 53.81903744 C-39.19250853 56.3300573 -41.70228958 58.83870098 -44.21280479 61.34662056 C-45.41485721 62.54800549 -46.6161661 63.75013483 -47.81672096 64.95301628 C-49.48714609 66.62597118 -51.16072573 68.29570399 -52.83520508 69.96459961 C-53.33130783 70.46272659 -53.82741058 70.96085358 -54.33854675 71.47407532 C-57.70950389 74.82416012 -59.0263964 75.92148358 -63.875 76.3125 C-66.82968653 76.25340627 -67.89058393 76.06564964 -70.5 74.5 C-72.19765665 71.67057226 -72.7575972 69.41667766 -72.5587616 66.10731506 C-70.27717299 57.50252534 -58.61060042 49.46554734 -52.35546875 43.22265625 C-51.1370052 42.00351797 -49.91869004 40.78423137 -48.70051575 39.56480408 C-46.16304743 37.02587012 -43.62380077 34.48873224 -41.08325195 31.95288086 C-37.82366756 28.69902976 -34.56864264 25.44066008 -31.31490612 22.18096256 C-28.80749147 19.6699427 -26.29771042 17.16129902 -23.78719521 14.65337944 C-22.58514279 13.45199451 -21.3838339 12.24986517 -20.18327904 11.04698372 C-18.51285391 9.37402882 -16.83927427 7.70429601 -15.16479492 6.03540039 C-14.66869217 5.53727341 -14.17258942 5.03914642 -13.66145325 4.52592468 C-9.32651446 0.21782702 -6.14823414 -0.83839556 0 0 Z " fill="#58BAFF" transform="translate(288,148)"/>
<path d="M0 0 C4.68796317 2.8950501 8.77605467 6.42344712 10.234375 11.89453125 C11.16656452 18.74158704 11.3930195 24.99387098 7.671875 31.01953125 C3.66347868 35.99068326 0.31000422 38.47580101 -6.0078125 39.3359375 C-13.1275177 39.69575056 -18.34453314 39.19135672 -23.98828125 34.640625 C-29.08369757 29.63479842 -30.03494232 26.05750776 -30.390625 19.01953125 C-30.17838344 12.13997715 -28.58962241 7.80486419 -23.765625 2.89453125 C-17.29271618 -2.6344117 -7.84970384 -3.13766411 0 0 Z M-11.765625 15.89453125 C-12.095625 17.54453125 -12.425625 19.19453125 -12.765625 20.89453125 C-10.290625 21.38953125 -10.290625 21.38953125 -7.765625 21.89453125 C-7.435625 20.24453125 -7.105625 18.59453125 -6.765625 16.89453125 C-8.415625 16.56453125 -10.065625 16.23453125 -11.765625 15.89453125 Z " fill="#4BB3FF" transform="translate(293.765625,193.10546875)"/>
<path d="M0 0 C4.68796317 2.8950501 8.77605467 6.42344712 10.234375 11.89453125 C11.16656452 18.74158704 11.3930195 24.99387098 7.671875 31.01953125 C3.66347868 35.99068326 0.31000422 38.47580101 -6.0078125 39.3359375 C-13.1275177 39.69575056 -18.34453314 39.19135672 -23.98828125 34.640625 C-29.08369757 29.63479842 -30.03494232 26.05750776 -30.390625 19.01953125 C-30.17838344 12.13997715 -28.58962241 7.80486419 -23.765625 2.89453125 C-17.29271618 -2.6344117 -7.84970384 -3.13766411 0 0 Z M-11.765625 15.89453125 C-12.095625 17.54453125 -12.425625 19.19453125 -12.765625 20.89453125 C-10.290625 21.38953125 -10.290625 21.38953125 -7.765625 21.89453125 C-7.435625 20.24453125 -7.105625 18.59453125 -6.765625 16.89453125 C-8.415625 16.56453125 -10.065625 16.23453125 -11.765625 15.89453125 Z " fill="#68C3FF" transform="translate(237.765625,137.10546875)"/>
</svg>
