<?xml version="1.0" encoding="UTF-8"?>
<svg version="1.1" xmlns="http://www.w3.org/2000/svg" width="512" height="512">
<path d="M0 0 C1.40731636 0.56094612 1.40731636 0.56094612 2.84306335 1.13322449 C5.90659923 2.36026688 8.95719554 3.6164264 12.00830078 4.87402344 C14.1508851 5.74045213 16.29413655 6.60523271 18.4380188 7.46844482 C22.91297521 9.27512119 27.38214629 11.09518092 31.84716797 12.92626953 C37.56247366 15.26987828 43.28720001 17.58927594 49.01588249 19.89996719 C54.49604533 22.11182249 59.97097829 24.33649103 65.44580078 26.56152344 C66.48570034 26.98270699 67.5255999 27.40389053 68.59701157 27.83783722 C71.54549383 29.03454671 74.49005537 30.24040842 77.43359375 31.44921875 C78.30019119 31.79951645 79.16678864 32.14981415 80.05964661 32.51072693 C92.88027396 37.81084104 92.88027396 37.81084104 95.82861328 44.48339844 C97.41712541 50.38358635 96.69010433 55.15677153 93.82861328 60.48339844 C90.88117639 63.81316794 88.05679271 66.0740053 83.82861328 67.48339844 C54.41017613 67.48339844 28.14294646 48.40913171 0.82861328 37.48339844 C0.33361328 162.22339844 0.33361328 162.22339844 -0.17138672 289.48339844 C1.47861328 289.81339844 3.12861328 290.14339844 4.82861328 290.48339844 C6.37579907 291.01589704 7.90944473 291.58897192 9.42904663 292.19572449 C10.76993347 292.72749298 10.76993347 292.72749298 12.13790894 293.27000427 C13.10624664 293.65906448 14.07458435 294.04812469 15.07226562 294.44897461 C16.61729767 295.06384232 16.61729767 295.06384232 18.19354248 295.69113159 C21.60217757 297.04882224 25.00835558 298.41256816 28.41455078 299.77636719 C30.79270901 300.72500553 33.17101737 301.67326755 35.54946899 302.62117004 C41.18154567 304.86682781 46.81208514 307.11629905 52.44190085 309.36761791 C58.79046968 311.90611519 65.14097907 314.43973947 71.49166179 316.97294271 C90.27497275 324.46560619 109.05261693 331.97242827 127.82861328 339.48339844 C127.82492611 338.59733351 127.82123894 337.71126858 127.81744003 336.7983532 C127.72911112 315.24063082 127.6629144 293.68293962 127.62136459 272.12507439 C127.60073745 261.69985328 127.57261387 251.27475296 127.52685547 240.84960938 C127.48699245 231.76328232 127.46118158 222.67704272 127.4522593 213.59063065 C127.44704366 208.77920144 127.43478176 203.96802246 127.40569305 199.15667343 C127.37853245 194.62752054 127.3701696 190.09872084 127.37618256 185.56949425 C127.37508261 183.90783582 127.36713247 182.24616553 127.35179138 180.58457756 C127.33185258 178.31351082 127.33668721 176.04377285 127.34759521 173.77267456 C127.34390804 172.50244383 127.34022087 171.2322131 127.33642197 169.92349052 C128.10016409 164.58543772 130.54354912 161.54000675 134.64111328 158.17089844 C139.81251917 155.43309532 143.85796501 154.98691185 149.45361328 156.54589844 C154.64523161 158.4595325 157.34976482 161.52570151 159.82861328 166.48339844 C159.92327308 168.75119704 159.95051018 171.02188375 159.9488678 173.29165649 C159.95014944 174.35390161 159.95014944 174.35390161 159.95145696 175.43760622 C159.95311053 177.82219901 159.94759241 180.20672222 159.94213867 182.59130859 C159.94185675 184.2960154 159.94201464 186.00072234 159.94258118 187.70542908 C159.94286895 192.34360304 159.93697551 196.98175132 159.93000722 201.6199193 C159.92377029 206.46327619 159.92316961 211.30663361 159.92198181 216.1499939 C159.9188695 225.32621012 159.91065746 234.50241448 159.90063232 243.67862546 C159.88946808 254.12345337 159.88395995 264.56828183 159.87893689 275.01311421 C159.86847477 296.50321559 159.85087725 317.99330627 159.82861328 339.48339844 C177.13954156 332.81525709 194.42883037 326.10295281 211.63872719 319.17719269 C214.69477665 317.94756914 217.75194348 316.72075829 220.80937195 315.49456787 C229.47183612 312.01999047 238.13253403 308.54102504 246.79223633 305.05957031 C252.15655459 302.90317333 257.52218936 300.75008115 262.88866234 298.59905243 C264.91665847 297.7853724 266.94413035 296.97038447 268.97106361 296.15406036 C271.77041085 295.02669068 274.57139654 293.90349155 277.37280273 292.78125 C278.20522995 292.44477448 279.03765717 292.10829895 279.89530945 291.7616272 C285.60070686 289.48339844 285.60070686 289.48339844 287.82861328 289.48339844 C287.82492611 288.52518126 287.82123894 287.56696407 287.81744003 286.57971001 C287.72866129 263.26949527 287.66291952 239.95930245 287.62136459 216.64895439 C287.60073505 205.37626005 287.57260686 194.10367737 287.52685547 182.83105469 C287.48699983 173.00639971 287.46118332 163.18182559 287.4522593 153.35709202 C287.44704242 148.15443166 287.43477253 142.95200261 287.40569305 137.74941635 C287.37854419 132.85256288 287.37016727 127.95603604 287.37618256 123.05911446 C287.37508209 121.26200269 287.36712507 119.46488001 287.35179138 117.66783333 C287.33187139 115.21287772 287.33668089 112.75915316 287.34759521 110.3041687 C287.33594385 109.59403842 287.32429248 108.88390814 287.31228805 108.15225875 C287.37239988 103.145517 288.72985853 100.3596203 291.82861328 96.48339844 C295.647915 92.8550618 298.71140334 92.17339386 303.82861328 91.98339844 C308.94582322 92.17339386 312.00931156 92.8550618 315.82861328 96.48339844 C319.67126518 101.22557115 320.40517676 104.97005668 320.33654785 110.90917969 C320.34278781 111.74311752 320.34902778 112.57705536 320.35545683 113.43626404 C320.37137721 116.22309875 320.35878645 119.00905765 320.34619141 121.79589844 C320.35161295 123.79688018 320.35873579 125.79785793 320.36743164 127.79882812 C320.385664 133.22855418 320.37859771 138.65797616 320.3659153 144.08770752 C320.35578725 149.77039407 320.36518044 155.45305461 320.37145996 161.13574219 C320.37873692 170.67875848 320.36914733 180.22165094 320.35009766 189.76464844 C320.32832889 200.79717431 320.33538023 211.82940451 320.35740328 222.86192322 C320.37555584 232.33469677 320.37811628 241.80738131 320.3676486 251.28016663 C320.36141291 256.93764086 320.36058021 262.59497611 320.37379456 268.25244141 C320.38535025 273.57130778 320.37733218 278.88979297 320.35421753 284.20861816 C320.34892898 286.16051602 320.3504467 288.11244597 320.35926819 290.06433105 C320.37020145 292.72919266 320.35648717 295.39283335 320.33654785 298.05761719 C320.34547074 298.82980087 320.35439363 299.60198456 320.3635869 300.39756775 C320.2885212 305.57077257 319.09157885 308.49736013 315.82861328 312.48339844 C311.06968211 316.30721039 305.68877662 318.34872902 300.05859375 320.55151367 C299.08785919 320.93776917 298.11712463 321.32402466 297.11697388 321.72198486 C293.89579838 323.00185381 290.67082027 324.27184398 287.44580078 325.54199219 C285.15730245 326.44938265 282.86906905 327.35744156 280.58108521 328.26612854 C274.51741799 330.67252417 268.45058573 333.07083351 262.38293457 335.46716309 C254.05575224 338.75731319 245.7326269 342.05770841 237.40948486 345.35806274 C232.68034767 347.23313707 227.94932663 349.10334805 223.21697998 350.9703064 C211.13524142 355.74349412 199.09148071 360.5938071 187.09521484 365.57763672 C183.54305923 367.04474406 179.99041376 368.51066018 176.43771744 369.9764576 C173.11174725 371.35709917 169.79587317 372.76018362 166.47970581 374.16416931 C164.44559091 375.00485088 162.41103791 375.84447346 160.37597656 376.68286133 C159.48118214 377.07052485 158.58638771 377.45818836 157.6644783 377.85759926 C146.98573385 382.19080671 137.80366004 381.22530801 127.3581543 376.82177734 C126.3850531 376.43128708 125.4119519 376.04079681 124.40936279 375.63847351 C121.20877341 374.34848577 118.0210368 373.02947334 114.83251953 371.70996094 C112.55925715 370.78716223 110.28522768 369.86625122 108.01048279 368.94711304 C102.00825154 366.51614644 96.01638277 364.06060825 90.02648926 361.59942627 C84.10099619 359.16912054 78.1667535 356.76041433 72.23291016 354.35058594 C62.93891369 350.5728726 53.646525 346.79124186 44.35644531 343.00390625 C42.66870215 342.31610014 42.66870215 342.31610014 40.94686317 341.61439896 C34.22338272 338.87287124 27.50539032 336.11833596 20.79053974 333.35574532 C16.59557559 331.63341811 12.39579404 329.92309391 8.19465446 328.21589279 C6.23802335 327.41767424 4.28352391 326.61420784 2.33133125 325.80519485 C-0.33884126 324.69920258 -3.01576071 323.61146702 -5.69506836 322.52783203 C-6.47184748 322.20084194 -7.24862659 321.87385185 -8.04894447 321.53695297 C-16.3300982 318.23615821 -22.18297937 321.08311103 -30.10009766 324.27441406 C-31.08689514 324.66665665 -32.07369263 325.05889923 -33.09039307 325.46302795 C-36.36450418 326.76615983 -39.6351189 328.07783858 -42.90576172 329.38964844 C-45.21776 330.31205692 -47.52995861 331.2339634 -49.84234619 332.15539551 C-54.71616202 334.09886871 -59.58849754 336.04600178 -64.45947266 337.99658203 C-70.5686537 340.44299531 -76.68023479 342.88334743 -82.79283905 345.32119751 C-87.56390615 347.22422537 -92.33416062 349.12928566 -97.10438538 351.03442383 C-99.47158419 351.97941971 -101.83904645 352.92375593 -104.20677185 353.86743164 C-116.38547927 358.72173403 -128.54285368 363.61435943 -140.63427734 368.68261719 C-143.50144965 369.87577672 -146.36916418 371.06762403 -149.23700714 372.25917053 C-151.84684607 373.35189655 -154.44619089 374.4671578 -157.0458374 375.5838623 C-165.38547134 379.09319153 -172.92482379 382.10582383 -182.17138672 380.48339844 C-186.82347276 378.32350134 -190.16894179 375.25059717 -192.17138672 370.48339844 C-192.76161732 366.46072742 -192.71093847 362.47278883 -192.67932129 358.41308594 C-192.68556125 357.18712708 -192.69180121 355.96116821 -192.69823027 354.69805908 C-192.71141484 351.3024133 -192.70668377 347.9076538 -192.69428539 344.51206207 C-192.68523189 340.84736599 -192.69920609 337.18274713 -192.71020508 333.51806641 C-192.72799175 326.34189778 -192.7241497 319.16589649 -192.71255451 311.9897213 C-192.70352103 306.15752158 -192.70229582 300.32536877 -192.70664978 294.49316406 C-192.70726271 293.66310097 -192.70787564 292.83303787 -192.70850715 291.97782135 C-192.70978605 290.29156493 -192.7110829 288.60530852 -192.71239752 286.91905212 C-192.72380374 271.10694338 -192.71068895 255.29492739 -192.68919605 239.48283386 C-192.67132502 225.91526727 -192.67442911 212.34783756 -192.69287109 198.78027344 C-192.71427706 183.02475734 -192.7227051 167.26932255 -192.71042204 151.51379395 C-192.70914784 149.83374025 -192.70789036 148.15368654 -192.70664978 146.47363281 C-192.70603268 145.64701393 -192.70541558 144.82039505 -192.70477977 143.96872711 C-192.70132605 138.14351958 -192.7071557 132.31836361 -192.71656799 126.49316406 C-192.72778632 119.3941737 -192.72475151 112.29536025 -192.70344502 105.19639015 C-192.69293225 101.57432951 -192.68881635 97.95256383 -192.70204163 94.33050537 C-192.71615905 90.40474041 -192.69930281 86.47945849 -192.67932129 82.55371094 C-192.68824418 81.40799622 -192.69716706 80.26228149 -192.70636034 79.08184814 C-192.6452122 72.90743993 -192.35914472 69.15199718 -188.17138672 64.48339844 C-183.41245555 60.65958649 -178.03155006 58.61806786 -172.40136719 56.4152832 C-171.43063263 56.02902771 -170.45989807 55.64277222 -169.45974731 55.24481201 C-166.23857182 53.96494307 -163.01359371 52.6949529 -159.78857422 51.42480469 C-157.50007588 50.51741422 -155.21184249 49.60935531 -152.92385864 48.70066833 C-146.86019142 46.29427271 -140.79335917 43.89596337 -134.72570801 41.49963379 C-126.39852568 38.20948368 -118.07540034 34.90908847 -109.7522583 31.60873413 C-105.02312111 29.7336598 -100.29210007 27.86344883 -95.55975342 25.99649048 C-83.47801486 21.22330276 -71.43425415 16.37298978 -59.43798828 11.38916016 C-55.88583267 9.92205281 -52.3331872 8.4561367 -48.78049088 6.99033928 C-45.45452069 5.60969771 -42.13864661 4.20661326 -38.82247925 2.80262756 C-36.78836435 1.961946 -34.75381135 1.12232341 -32.71875 0.28393555 C-31.82395557 -0.10372797 -30.92916115 -0.49139149 -30.00725174 -0.89080238 C-19.48772669 -5.15940198 -10.31450661 -4.32635591 0 0 Z M-37.2191925 38.06201172 C-38.09197845 38.41225906 -38.9647644 38.76250641 -39.86399841 39.12336731 C-40.82951126 39.51288071 -41.79502411 39.9023941 -42.78979492 40.30371094 C-43.80144714 40.71026413 -44.81309937 41.11681732 -45.85540771 41.53569031 C-49.22831805 42.89163248 -52.60023691 44.25002304 -55.97216797 45.60839844 C-58.32172994 46.55345985 -60.67135548 47.49836321 -63.02104187 48.44311523 C-68.60403766 50.6883224 -74.18642186 52.9350434 -79.76850623 55.18251514 C-87.8800599 58.44831052 -95.99272751 61.71133624 -104.10529613 64.97460938 C-109.94285701 67.32281336 -115.78028175 69.67135364 -121.61726379 72.02099609 C-122.70979965 72.46071243 -123.80233551 72.90042877 -124.92797852 73.35346985 C-126.91996569 74.15520821 -128.91189244 74.95709676 -130.9037323 75.75920105 C-140.6534322 79.68287628 -150.41337435 83.58019349 -160.17138672 87.48339844 C-160.17138672 170.64339844 -160.17138672 253.80339844 -160.17138672 339.48339844 C-156.58591458 338.76630401 -153.87845096 338.0917029 -150.57095337 336.77107239 C-149.67702881 336.41656006 -148.78310425 336.06204773 -147.86209106 335.6967926 C-146.4095845 335.11320229 -146.4095845 335.11320229 -144.92773438 334.51782227 C-143.89771301 334.10791046 -142.86769165 333.69799866 -141.80645752 333.27566528 C-138.39782243 331.91797463 -134.99164442 330.55422872 -131.58544922 329.19042969 C-129.20729099 328.24179135 -126.82898263 327.29352932 -124.45053101 326.34562683 C-118.81845433 324.09996907 -113.18791486 321.85049782 -107.55809915 319.59917897 C-101.20953032 317.06068168 -94.85902093 314.5270574 -88.50833821 311.99385417 C-69.72502473 304.50118968 -50.94758405 296.99387737 -32.17138672 289.48339844 C-32.17138672 205.99339844 -32.17138672 122.50339844 -32.17138672 36.48339844 C-33.96474989 36.48339844 -35.57441649 37.40012275 -37.2191925 38.06201172 Z " fill="#000000" transform="translate(192.17138671875,131.5166015625)"/>
<path d="M0 0 C7.15702749 6.0908459 12.77259614 13.28386408 18.27734375 20.84765625 C18.93863281 21.75386719 19.59992188 22.66007812 20.28125 23.59375 C35.10006805 45.37442888 41.23935385 75.13077208 36.4765625 100.97265625 C28.62740923 135.62863295 6.71707506 167.49650005 -13.72265625 195.84765625 C-14.30160645 196.65477051 -14.88055664 197.46188477 -15.47705078 198.29345703 C-23.329071 209.21352868 -31.56091683 219.72769867 -40.20507812 230.03027344 C-42.25859521 232.48947247 -44.27123882 234.98098469 -46.28515625 237.47265625 C-49.97117587 241.96780213 -53.70300714 246.42253081 -57.47265625 250.84765625 C-58.01607666 251.49557129 -58.55949707 252.14348633 -59.11938477 252.81103516 C-62.78176406 257.07658348 -65.82400856 260.41461467 -71.625 261.28125 C-77.87350252 261.28929183 -81.9652443 261.2879074 -86.72265625 256.84765625 C-92.20239489 251.18945869 -97.20315664 245.13353556 -102.15234375 239.01171875 C-104.07446086 236.63480815 -106.02230894 234.28089682 -107.98046875 231.93359375 C-115.87550934 222.45558763 -123.43332787 212.79787057 -130.72265625 202.84765625 C-131.25246094 202.12964844 -131.78226562 201.41164062 -132.328125 200.671875 C-140.20856656 189.98367517 -147.67934011 179.10534765 -154.72265625 167.84765625 C-155.2937915 166.94297607 -155.2937915 166.94297607 -155.87646484 166.02001953 C-167.22511843 147.96920825 -176.94590468 129.08773463 -183.72265625 108.84765625 C-184.10292969 107.76355469 -184.48320312 106.67945313 -184.875 105.5625 C-191.18049818 83.97270668 -186.65701287 58.99580946 -177.72265625 38.84765625 C-177.29339844 37.86667969 -176.86414063 36.88570313 -176.421875 35.875 C-164.2509409 9.85320006 -141.4739852 -10.87126199 -114.57421875 -20.8359375 C-73.91770652 -35.13330433 -33.17245116 -26.22384589 0 0 Z M-126.72265625 24.84765625 C-127.69203125 25.62238281 -128.66140625 26.39710937 -129.66015625 27.1953125 C-142.50894506 37.92543946 -151.86160705 56.31503472 -153.72265625 72.84765625 C-154.59088073 84.47098061 -154.23761984 94.95314235 -149.72265625 105.84765625 C-149.35261475 106.76659668 -149.35261475 106.76659668 -148.97509766 107.70410156 C-139.188898 131.8662225 -125.02960705 153.84807704 -109.72265625 174.84765625 C-109.16964844 175.61319824 -108.61664063 176.37874023 -108.046875 177.16748047 C-100.38363376 187.77363123 -92.42698601 198.06189382 -84.10449219 208.15722656 C-81.23807092 211.66378148 -78.47177959 215.24880388 -75.72265625 218.84765625 C-71.75254174 217.52428475 -70.2132902 214.9457818 -67.78515625 211.72265625 C-66.79515937 210.43291123 -65.80424348 209.14387122 -64.8125 207.85546875 C-64.30187012 207.1893457 -63.79124023 206.52322266 -63.26513672 205.83691406 C-61.32232074 203.33136411 -59.3250405 200.87323151 -57.32348633 198.41455078 C-46.29776098 184.84077939 -36.17415681 170.55726466 -26.72265625 155.84765625 C-26.22266113 155.07083496 -25.72266602 154.29401367 -25.20751953 153.49365234 C0.15656544 114.18605717 0.15656544 114.18605717 3.6640625 68.7578125 C0.45740474 55.52152034 -5.76911617 43.10901679 -14.72265625 32.84765625 C-15.49738281 31.87828125 -16.27210938 30.90890625 -17.0703125 29.91015625 C-27.74350289 17.12954612 -46.23956032 7.57829731 -62.72265625 5.84765625 C-86.74887184 4.29657998 -108.20192773 8.68741273 -126.72265625 24.84765625 Z " fill="#000000" transform="translate(474.72265625,27.15234375)"/>
<path d="M0 0 C1.22396484 0.65162109 1.22396484 0.65162109 2.47265625 1.31640625 C12.49559581 7.3508004 18.99990959 16.14031679 23 27 C23.36351562 27.90105469 23.72703125 28.80210938 24.1015625 29.73046875 C27.38382885 41.67506412 25.78430985 55.18318714 20 66 C19.56558594 66.81597656 19.13117188 67.63195312 18.68359375 68.47265625 C12.6491996 78.49559581 3.85968321 84.99990959 -7 89 C-7.90105469 89.36351562 -8.80210937 89.72703125 -9.73046875 90.1015625 C-21.67506412 93.38382885 -35.18318714 91.78430985 -46 86 C-46.81597656 85.56558594 -47.63195312 85.13117188 -48.47265625 84.68359375 C-58.49559581 78.6491996 -64.99990959 69.85968321 -69 59 C-69.36351562 58.09894531 -69.72703125 57.19789062 -70.1015625 56.26953125 C-73.38382885 44.32493588 -71.78430985 30.81681286 -66 20 C-65.56558594 19.18402344 -65.13117188 18.36804688 -64.68359375 17.52734375 C-58.2523774 6.84529494 -48.42969765 -0.09746674 -36.80078125 -4.1015625 C-24.42150046 -7.02780565 -11.23829359 -6.00969743 0 0 Z M-36.375 34.625 C-38.57907893 39.20270239 -38.7971639 43.00552411 -38 48 C-35.67031069 52.83858548 -32.83858548 55.67031069 -28 58 C-23.00552411 58.7971639 -19.20270239 58.57907893 -14.625 56.375 C-11.04092287 53.13226355 -8.40464759 50.53524104 -7.6171875 45.6015625 C-7.36116081 39.91777006 -8.06373068 36.35061345 -12 32 C-16.35061345 28.06373068 -19.91777006 27.36116081 -25.6015625 27.6171875 C-30.53524104 28.40464759 -33.13226355 31.04092287 -36.375 34.625 Z " fill="#000000" transform="translate(423,69)"/>
</svg>
