<?xml version="1.0" encoding="UTF-8"?>
<svg version="1.1" xmlns="http://www.w3.org/2000/svg" width="512" height="512">
<path d="M0 0 C3.9810133 1.5332281 5.73976183 3.92894471 8.25 7.3125 C9.1324602 8.49114927 10.01530023 9.66951421 10.8984375 10.84765625 C11.38666992 11.5039502 11.87490234 12.16024414 12.37792969 12.83642578 C14.16273406 15.21706039 15.97344827 17.57637718 17.7890625 19.93359375 C25.08957835 29.42223422 32.21730317 38.99335985 39.06640625 48.8125 C42.68512329 53.99855165 46.39738382 59.11615085 50.11010742 64.23510742 C51.74292629 66.48801792 53.37131515 68.74409916 55 71 C55.71510742 71.98444092 56.43021484 72.96888184 57.16699219 73.9831543 C64.37930483 83.95683319 71.19754188 94.18162257 78 104.4375 C79.12217478 106.12579799 80.24456978 107.81394963 81.3671875 109.50195312 C83.55293454 112.78898887 85.737205 116.07699817 87.92041016 119.36572266 C90.33344413 122.99934941 92.75375368 126.62803809 95.17739868 130.2545929 C130.79390945 183.565038 174.40291916 249.21485511 183 314 C183.09063721 314.63969727 183.18127441 315.27939453 183.2746582 315.93847656 C185.83644854 334.77477047 183.30149314 354.60253402 179 373 C178.73574219 374.18464844 178.47148437 375.36929687 178.19921875 376.58984375 C173.20831764 397.19105228 163.41437838 417.84976616 151 435 C150.26265625 436.02351563 149.5253125 437.04703125 148.765625 438.1015625 C131.52866777 461.48844283 109.77213181 479.69614877 84 493 C83.38447266 493.31807617 82.76894531 493.63615234 82.13476562 493.96386719 C66.60709255 501.8597137 50.10138217 506.84919567 33 510 C31.61941406 510.26707764 31.61941406 510.26707764 30.2109375 510.53955078 C20.67375389 512.21755526 11.27807602 512.39649773 1.625 512.375 C0.78983856 512.37512085 -0.04532288 512.3752417 -0.90579224 512.37536621 C-14.62470639 512.34716464 -27.62791126 511.22496542 -41 508 C-42.33832894 507.7073588 -43.67685721 507.41562698 -45.015625 507.125 C-67.57931146 501.74812153 -89.50019774 490.90674791 -108 477 C-108.82113281 476.39027344 -109.64226562 475.78054688 -110.48828125 475.15234375 C-148.41037262 445.91943862 -173.81634999 402.83812215 -180.59375 355.33984375 C-188.23300205 292.53637735 -156.03699442 233.53041721 -124.87402344 181.15673828 C-123.23368956 178.39364331 -121.60331505 175.62497583 -119.97862244 172.85266113 C-118.59561604 170.49326476 -117.20907076 168.13595921 -115.82192993 165.7789917 C-114.86092869 164.14485089 -113.90244304 162.50923148 -112.9440918 160.87353516 C-103.865174 145.5106778 -93.87232736 130.71516381 -83.97631836 115.87182617 C-82.19718198 113.20202892 -80.4217672 110.52978259 -78.64648438 107.85742188 C-66.50477659 89.61515597 -53.91558057 71.70182989 -41 54 C-40.44876465 53.24396484 -39.8975293 52.48792969 -39.32958984 51.70898438 C-30.05609753 39.00908777 -20.56709862 26.47972003 -11 14 C-10.45166504 13.28360352 -9.90333008 12.56720703 -9.33837891 11.82910156 C-1.21062176 1.21062176 -1.21062176 1.21062176 0 0 Z " fill="#84DBFF" transform="translate(255,0)"/>
<path d="M0 0 C4.04458502 2.79268965 6.80197921 6.2588268 8.625 10.8125 C8.84852937 13.22322183 8.98296618 15.64274391 9.0625 18.0625 C10.2169845 41.54778263 18.07945876 62.85679732 33.625 80.8125 C34.22828125 81.56015625 34.8315625 82.3078125 35.453125 83.078125 C50.72743297 101.43296567 75.02402031 113.25335762 98.625 115.8125 C100.64402565 115.89437938 102.66310189 115.97568215 104.68261719 116.04443359 C111.63085011 116.30726221 117.50551093 116.59870455 122.625 121.8125 C125.8554048 125.62771946 127.36581035 129.68900557 127.0703125 134.76171875 C125.9379588 139.97650552 122.89142224 144.30728574 118.5 147.3125 C113.63801465 149.64542715 108.88892061 149.18892111 103.625 148.8125 C102.93776855 148.77914551 102.25053711 148.74579102 101.54248047 148.71142578 C65.37643607 146.89493767 33.28934032 129.24928129 8.9375 102.875 C-5.73450545 86.0959815 -17.00773664 64.74108293 -21.375 42.8125 C-21.57867187 41.94496094 -21.78234375 41.07742188 -21.9921875 40.18359375 C-23.41418562 33.33657539 -23.67316721 26.47122672 -23.8125 19.5 C-23.84690186 18.55656738 -23.88130371 17.61313477 -23.91674805 16.64111328 C-23.95725849 10.01736297 -22.77470461 6.79180641 -18.375 1.8125 C-13.22348571 -2.7502698 -6.16507759 -2.16919397 0 0 Z " fill="#FDFEFF" transform="translate(145.375,315.1875)"/>
</svg>
