<?xml version="1.0" encoding="UTF-8"?>
<svg version="1.1" xmlns="http://www.w3.org/2000/svg" width="512" height="512">
<path d="M0 0 C2.26685452 1.68622161 4.37461281 3.45620684 6.4765625 5.34375 C7.29769531 6.07207031 8.11882812 6.80039062 8.96484375 7.55078125 C20.29356138 18.19186807 28.04949978 31.92956156 30.4765625 47.34375 C31.49054108 47.33486755 32.50451965 47.32598511 33.54922485 47.3168335 C43.11278664 47.23568812 52.67627843 47.17575602 62.24010658 47.13650131 C67.15679923 47.11564143 72.0732136 47.08735293 76.98974609 47.04199219 C81.73598332 46.99847749 86.48195314 46.97460086 91.22837448 46.96424103 C93.03766463 46.95685976 94.84694041 46.94244573 96.65611649 46.92082977 C99.19375287 46.89172062 101.73028947 46.88779707 104.26806641 46.88964844 C105.38584976 46.86807678 105.38584976 46.86807678 106.5262146 46.84606934 C111.65190429 46.88643608 114.52564138 48.12480354 118.4765625 51.34375 C122.53286648 56.56634857 122.25053794 61.99715142 121.4765625 68.34375 C119.30145953 72.93563404 117.01857384 75.17077814 112.4765625 77.34375 C109.69880657 77.61354794 107.15388234 77.7242595 104.3815918 77.68432617 C103.18080742 77.68498329 103.18080742 77.68498329 101.95576477 77.68565369 C99.32051864 77.68357046 96.68591568 77.66026178 94.05078125 77.63671875 C92.2194707 77.63112113 90.38815564 77.62685181 88.55683899 77.62385559 C83.74481733 77.61241989 78.93306879 77.58296367 74.12115479 77.54974365 C69.20776056 77.51901529 64.29432206 77.50534434 59.38085938 77.49023438 C49.74597398 77.45809276 40.11129098 77.4069118 30.4765625 77.34375 C30.27830872 78.16454544 30.08005493 78.98534088 29.87579346 79.83100891 C29.61159607 80.90940536 29.34739868 81.98780182 29.07519531 83.09887695 C28.81506653 84.16717239 28.55493774 85.23546783 28.28692627 86.33613586 C25.67838436 96.017575 20.13355037 104.93059312 13.4765625 112.34375 C12.74824219 113.16488281 12.01992188 113.98601562 11.26953125 114.83203125 C-1.20742789 128.11525592 -18.76817566 136.94703571 -37.125 137.6796875 C-58.41616628 138.00089801 -77.2319417 133.97345388 -93.5234375 119.34375 C-94.34457031 118.61542969 -95.16570312 117.88710938 -96.01171875 117.13671875 C-107.34043638 106.49563193 -115.09637478 92.75793844 -117.5234375 77.34375 C-118.357944 77.34602832 -118.357944 77.34602832 -119.20930922 77.34835267 C-152.17723984 77.43785128 -185.14514002 77.50648928 -218.11316488 77.54801132 C-222.07104893 77.55301419 -226.02893273 77.55819147 -229.98681641 77.56347656 C-230.77476484 77.5645258 -231.56271328 77.56557505 -232.37453894 77.56665608 C-245.13544703 77.58406467 -257.89628309 77.61560485 -270.65714844 77.65236118 C-283.74949659 77.689758 -296.841807 77.71198318 -309.93420637 77.72010398 C-318.01393802 77.72559438 -326.09346609 77.74293962 -334.17313509 77.77541587 C-340.36706568 77.79904524 -346.56084083 77.80157302 -352.75481033 77.79618073 C-355.29691828 77.79728307 -357.83903379 77.80526481 -360.38109589 77.8205719 C-363.84749937 77.84042477 -367.31302639 77.83570544 -370.77944946 77.82476807 C-371.78918276 77.83641943 -372.79891607 77.8480708 -373.83924735 77.86007524 C-379.72277123 77.80977532 -383.02991003 77.23906465 -387.5234375 73.34375 C-391.57974148 68.12115143 -391.29741294 62.69034858 -390.5234375 56.34375 C-388.35353398 51.76284256 -386.10750215 49.42396303 -381.5234375 47.34375 C-377.98217589 46.90596724 -374.4639001 46.95222959 -370.89970398 46.98298645 C-369.81737403 46.98042318 -368.73504408 46.9778599 -367.61991626 46.97521895 C-363.98693864 46.97027074 -360.35437499 46.98679161 -356.72143555 47.00317383 C-354.11974599 47.00401987 -351.51805572 47.0035454 -348.91636658 47.00184631 C-343.31188852 47.00027371 -337.70751528 47.00968146 -332.10306358 47.02655983 C-323.99999787 47.05094714 -315.89698281 47.05875482 -307.79388437 47.0625238 C-294.64698468 47.06908871 -281.50014085 47.08905094 -268.35327148 47.11743164 C-255.58276651 47.14497119 -242.81227672 47.16620528 -230.04174805 47.17895508 C-229.25449483 47.17974325 -228.46724162 47.18053142 -227.65613224 47.18134347 C-223.7066907 47.1852586 -219.75724905 47.18904972 -215.80780733 47.19277918 C-183.04631005 47.22387632 -150.28488125 47.27671319 -117.5234375 47.34375 C-117.32518372 46.52295456 -117.12692993 45.70215912 -116.92266846 44.85649109 C-116.65847107 43.77809464 -116.39427368 42.69969818 -116.12207031 41.58862305 C-115.73187714 39.98617989 -115.73187714 39.98617989 -115.33380127 38.35136414 C-112.72525936 28.669925 -107.18042537 19.75690688 -100.5234375 12.34375 C-99.79511719 11.52261719 -99.06679688 10.70148438 -98.31640625 9.85546875 C-72.64852592 -17.47107913 -30.68115209 -20.13747444 0 0 Z " fill="#000000" transform="translate(390.5234375,374.65625)"/>
<path d="M0 0 C2.26685452 1.68622161 4.37461281 3.45620684 6.4765625 5.34375 C7.70826172 6.43623047 7.70826172 6.43623047 8.96484375 7.55078125 C20.29356138 18.19186807 28.04949978 31.92956156 30.4765625 47.34375 C31.0307842 47.34223112 31.5850059 47.34071224 32.15602219 47.33914733 C64.99869598 47.24964836 97.84133922 47.18101054 130.68410761 47.13948868 C134.62697038 47.13448581 138.56983291 47.12930853 142.51269531 47.12402344 C143.29765313 47.1229742 144.08261096 47.12192495 144.89135538 47.12084392 C157.60376467 47.10343542 170.31610165 47.07189529 183.02846803 47.03513882 C196.07109562 46.99774176 209.11368532 46.97551677 222.15636432 46.96739602 C230.20538685 46.96190567 238.25420502 46.94456071 246.30316465 46.91208413 C252.47359434 46.8884544 258.64386801 46.88592704 264.81433678 46.89131927 C267.34676943 46.89021695 269.87920967 46.88223544 272.4115963 46.8669281 C275.86486367 46.84707461 279.31725129 46.85179477 282.77053833 46.86273193 C283.77638068 46.85108057 284.78222304 46.8394292 285.81854546 46.82742476 C291.69311714 46.87783665 294.98858767 47.45702222 299.4765625 51.34375 C303.53286648 56.56634857 303.25053794 61.99715142 302.4765625 68.34375 C300.30662094 72.92473773 298.05997784 75.2621959 293.4765625 77.34375 C289.94791019 77.78128463 286.44243868 77.73528032 282.89079285 77.70451355 C281.27342325 77.70835846 281.27342325 77.70835846 279.62337953 77.71228105 C276.00422086 77.71722914 272.38547777 77.7007086 268.76635742 77.68432617 C266.17451996 77.68348012 263.58268177 77.6839546 260.99084473 77.68565369 C255.40764742 77.68722627 249.82455534 77.67781871 244.24138451 77.66094017 C236.16908786 77.63655263 228.09684206 77.62874516 220.02451257 77.6249762 C206.92752706 77.61841132 193.83059764 77.5984492 180.73364258 77.57006836 C168.01164022 77.54252871 155.2896531 77.52129467 142.56762695 77.50854492 C141.78336073 77.50775675 140.99909451 77.50696858 140.19106265 77.50615653 C136.25660518 77.5022414 132.3221476 77.49845028 128.38768995 77.49472082 C95.75060664 77.46362379 63.11359208 77.41078703 30.4765625 77.34375 C30.27830872 78.16454544 30.08005493 78.98534088 29.87579346 79.83100891 C29.61159607 80.90940536 29.34739868 81.98780182 29.07519531 83.09887695 C28.81506653 84.16717239 28.55493774 85.23546783 28.28692627 86.33613586 C25.67838436 96.017575 20.13355037 104.93059312 13.4765625 112.34375 C12.74824219 113.16488281 12.01992187 113.98601562 11.26953125 114.83203125 C-1.20742789 128.11525592 -18.76817566 136.94703571 -37.125 137.6796875 C-58.41616628 138.00089801 -77.2319417 133.97345388 -93.5234375 119.34375 C-94.34457031 118.61542969 -95.16570312 117.88710938 -96.01171875 117.13671875 C-107.34043638 106.49563193 -115.09637478 92.75793844 -117.5234375 77.34375 C-119.06319748 77.35707367 -119.06319748 77.35707367 -120.63406372 77.3706665 C-130.3153555 77.45180867 -139.99657814 77.51174245 -149.67813301 77.55099869 C-154.65535802 77.57185937 -159.63230817 77.60014938 -164.609375 77.64550781 C-169.41396658 77.68901959 -174.21829404 77.71289854 -179.02306747 77.72325897 C-180.85468579 77.73064076 -182.68628991 77.74505579 -184.51779556 77.76667023 C-187.08656115 77.79577541 -189.65424016 77.79970308 -192.22314453 77.79785156 C-192.97768417 77.81223267 -193.73222382 77.82661377 -194.5096283 77.84143066 C-199.66185573 77.80133808 -202.55336028 76.58545016 -206.5234375 73.34375 C-210.57974148 68.12115143 -210.29741294 62.69034858 -209.5234375 56.34375 C-207.3486415 51.752514 -205.06697004 49.51309993 -200.5234375 47.34375 C-197.7159828 47.07382636 -195.13882333 46.96330818 -192.33666992 47.00317383 C-191.52639343 47.00273575 -190.71611694 47.00229767 -189.88128662 47.00184631 C-187.21357802 47.00392976 -184.54650453 47.02723955 -181.87890625 47.05078125 C-180.02517541 47.05637879 -178.17144012 47.06064814 -176.31770325 47.06364441 C-171.4464994 47.07508073 -166.57556529 47.10453752 -161.70446777 47.13775635 C-156.73075001 47.16848335 -151.75698852 47.18215537 -146.78320312 47.19726562 C-137.02982962 47.22940835 -127.27665602 47.28059008 -117.5234375 47.34375 C-117.32518372 46.52295456 -117.12692993 45.70215912 -116.92266846 44.85649109 C-116.65847107 43.77809464 -116.39427368 42.69969818 -116.12207031 41.58862305 C-115.86194153 40.52032761 -115.60181274 39.45203217 -115.33380127 38.35136414 C-112.72525936 28.669925 -107.18042537 19.75690688 -100.5234375 12.34375 C-99.43095703 11.11205078 -99.43095703 11.11205078 -98.31640625 9.85546875 C-72.64852592 -17.47107913 -30.68115209 -20.13747444 0 0 Z " fill="#000000" transform="translate(209.5234375,193.65625)"/>
<path d="M0 0 C2.26685452 1.68622161 4.37461281 3.45620684 6.4765625 5.34375 C7.29769531 6.07207031 8.11882812 6.80039062 8.96484375 7.55078125 C20.29356138 18.19186807 28.04949978 31.92956156 30.4765625 47.34375 C31.49054108 47.33486755 32.50451965 47.32598511 33.54922485 47.3168335 C43.11278664 47.23568812 52.67627843 47.17575602 62.24010658 47.13650131 C67.15679923 47.11564143 72.0732136 47.08735293 76.98974609 47.04199219 C81.73598332 46.99847749 86.48195314 46.97460086 91.22837448 46.96424103 C93.03766463 46.95685976 94.84694041 46.94244573 96.65611649 46.92082977 C99.19375287 46.89172062 101.73028947 46.88779707 104.26806641 46.88964844 C105.38584976 46.86807678 105.38584976 46.86807678 106.5262146 46.84606934 C111.65190429 46.88643608 114.52564138 48.12480354 118.4765625 51.34375 C122.53286648 56.56634857 122.25053794 61.99715142 121.4765625 68.34375 C119.30145953 72.93563404 117.01857384 75.17077814 112.4765625 77.34375 C109.69880657 77.61354794 107.15388234 77.7242595 104.3815918 77.68432617 C103.18080742 77.68498329 103.18080742 77.68498329 101.95576477 77.68565369 C99.32051864 77.68357046 96.68591568 77.66026178 94.05078125 77.63671875 C92.2194707 77.63112113 90.38815564 77.62685181 88.55683899 77.62385559 C83.74481733 77.61241989 78.93306879 77.58296367 74.12115479 77.54974365 C69.20776056 77.51901529 64.29432206 77.50534434 59.38085938 77.49023438 C49.74597398 77.45809276 40.11129098 77.4069118 30.4765625 77.34375 C30.27830872 78.16454544 30.08005493 78.98534088 29.87579346 79.83100891 C29.61159607 80.90940536 29.34739868 81.98780182 29.07519531 83.09887695 C28.81506653 84.16717239 28.55493774 85.23546783 28.28692627 86.33613586 C25.67838436 96.017575 20.13355037 104.93059312 13.4765625 112.34375 C12.74824219 113.16488281 12.01992188 113.98601562 11.26953125 114.83203125 C-1.20742789 128.11525592 -18.76817566 136.94703571 -37.125 137.6796875 C-58.41616628 138.00089801 -77.2319417 133.97345388 -93.5234375 119.34375 C-94.34457031 118.61542969 -95.16570312 117.88710937 -96.01171875 117.13671875 C-107.34043638 106.49563193 -115.09637478 92.75793844 -117.5234375 77.34375 C-118.357944 77.34602832 -118.357944 77.34602832 -119.20930922 77.34835267 C-152.17723984 77.43785128 -185.14514002 77.50648928 -218.11316488 77.54801132 C-222.07104893 77.55301419 -226.02893273 77.55819147 -229.98681641 77.56347656 C-230.77476484 77.5645258 -231.56271328 77.56557505 -232.37453894 77.56665608 C-245.13544703 77.58406467 -257.89628309 77.61560485 -270.65714844 77.65236118 C-283.74949659 77.689758 -296.841807 77.71198318 -309.93420637 77.72010398 C-318.01393802 77.72559438 -326.09346609 77.74293962 -334.17313509 77.77541587 C-340.36706568 77.79904524 -346.56084083 77.80157302 -352.75481033 77.79618073 C-355.29691828 77.79728307 -357.83903379 77.80526481 -360.38109589 77.8205719 C-363.84749937 77.84042477 -367.31302639 77.83570544 -370.77944946 77.82476807 C-371.78918276 77.83641943 -372.79891607 77.8480708 -373.83924735 77.86007524 C-379.72277123 77.80977532 -383.02991003 77.23906465 -387.5234375 73.34375 C-391.57974148 68.12115143 -391.29741294 62.69034858 -390.5234375 56.34375 C-388.35353398 51.76284256 -386.10750215 49.42396303 -381.5234375 47.34375 C-377.98217589 46.90596724 -374.4639001 46.95222959 -370.89970398 46.98298645 C-369.81737403 46.98042318 -368.73504408 46.9778599 -367.61991626 46.97521895 C-363.98693864 46.97027074 -360.35437499 46.98679161 -356.72143555 47.00317383 C-354.11974599 47.00401987 -351.51805572 47.0035454 -348.91636658 47.00184631 C-343.31188852 47.00027371 -337.70751528 47.00968146 -332.10306358 47.02655983 C-323.99999787 47.05094714 -315.89698281 47.05875482 -307.79388437 47.0625238 C-294.64698468 47.06908871 -281.50014085 47.08905094 -268.35327148 47.11743164 C-255.58276651 47.14497119 -242.81227672 47.16620528 -230.04174805 47.17895508 C-229.25449483 47.17974325 -228.46724162 47.18053142 -227.65613224 47.18134347 C-223.7066907 47.1852586 -219.75724905 47.18904972 -215.80780733 47.19277918 C-183.04631005 47.22387632 -150.28488125 47.27671319 -117.5234375 47.34375 C-117.32518372 46.52295456 -117.12692993 45.70215912 -116.92266846 44.85649109 C-116.65847107 43.77809464 -116.39427368 42.69969818 -116.12207031 41.58862305 C-115.73187714 39.98617989 -115.73187714 39.98617989 -115.33380127 38.35136414 C-112.72525936 28.669925 -107.18042537 19.75690688 -100.5234375 12.34375 C-99.79511719 11.52261719 -99.06679688 10.70148437 -98.31640625 9.85546875 C-72.64852592 -17.47107913 -30.68115209 -20.13747444 0 0 Z " fill="#000000" transform="translate(390.5234375,12.65625)"/>
</svg>
