<?xml version="1.0" encoding="UTF-8"?>
<svg version="1.1" xmlns="http://www.w3.org/2000/svg" width="512" height="512">
<path d="M0 0 C0.63534668 0.21736816 1.27069336 0.43473633 1.92529297 0.65869141 C43.62572352 15.0890286 83.17783583 42.7383122 110 78 C110.61705811 78.79446533 110.61705811 78.79446533 111.24658203 79.60498047 C139.15313867 115.62642927 156.25374402 158.71322921 161 204 C161.19529297 205.83111328 161.19529297 205.83111328 161.39453125 207.69921875 C166.84626523 270.28512483 146.51880227 334.11670739 106.40625 382.34863281 C102.10991071 387.39384791 97.59247523 392.22486086 93 397 C92.29593018 397.73694092 92.29593018 397.73694092 91.57763672 398.48876953 C76.02043274 414.6998665 57.53800107 427.98344312 38 439 C37.4121875 439.33837891 36.824375 439.67675781 36.21875 440.02539062 C25.58413945 446.12396663 14.48013116 450.73575697 3 455 C1.87271484 455.42176514 1.87271484 455.42176514 0.72265625 455.85205078 C-37.50444031 469.94871852 -80.92884501 473.25749156 -121 466 C-121.89332031 465.83902832 -122.78664062 465.67805664 -123.70703125 465.51220703 C-166.82150509 457.39314638 -206.23178268 438.00577848 -239 409 C-240.33998047 407.82630859 -240.33998047 407.82630859 -241.70703125 406.62890625 C-250.99547691 398.39629005 -259.33303463 389.76313421 -267 380 C-267.75120117 379.05543945 -267.75120117 379.05543945 -268.51757812 378.09179688 C-276.15561785 368.46841831 -283.06110819 358.75752109 -289 348 C-289.43554199 347.22172852 -289.87108398 346.44345703 -290.31982422 345.64160156 C-321.51564654 289.53934916 -329.07699994 223.22684486 -311.61328125 161.4375 C-311.08115681 159.62333736 -310.54356109 157.81076886 -310 156 C-309.74911621 155.16339844 -309.49823242 154.32679688 -309.23974609 153.46484375 C-300.5499202 125.25504238 -285.99352192 98.57201156 -267 76 C-266.03508651 74.83078672 -265.07024421 73.66151468 -264.10546875 72.4921875 C-254.10517228 60.49249052 -243.34243983 49.60352762 -231 40 C-229.56140625 38.83597656 -229.56140625 38.83597656 -228.09375 37.6484375 C-218.8852975 30.32353211 -209.08765587 24.04385962 -199 18 C-198.36900391 17.62101562 -197.73800781 17.24203125 -197.08789062 16.8515625 C-172.30663649 2.21934585 -143.29702637 -6.56431244 -115 -11 C-114.30825684 -11.11714355 -113.61651367 -11.23428711 -112.90380859 -11.35498047 C-75.53879831 -17.53807659 -35.54023755 -12.2387788 0 0 Z " fill="#FEDF01" transform="translate(336,28)"/>
<path d="M0 0 C16.69265845 13.28706123 30.88691285 29.75905617 40.8125 48.6875 C41.42867188 49.84121094 42.04484375 50.99492187 42.6796875 52.18359375 C46.1847461 58.87441327 48.86880649 65.39864934 50.8125 72.6875 C51.30236226 74.14926984 51.80239835 75.60766928 52.3125 77.0625 C65.32219047 115.95534427 60.75005184 159.04788643 42.91796875 195.609375 C39.02376781 203.37527226 34.67192391 210.69514071 29.6875 217.8125 C28.97001587 218.84153442 28.97001587 218.84153442 28.23803711 219.89135742 C25.278591 224.00312747 22.07546217 227.59813019 18.41186523 231.09741211 C16.80825899 232.69171641 15.40799766 234.35734936 14 236.125 C13.278125 236.970625 12.55625 237.81625 11.8125 238.6875 C11.1525 238.6875 10.4925 238.6875 9.8125 238.6875 C9.4825 239.6775 9.1525 240.6675 8.8125 241.6875 C-15.34326772 264.6446991 -49.03058225 279.77834411 -82.1875 282.6875 C-82.86699707 282.74776367 -83.54649414 282.80802734 -84.24658203 282.87011719 C-128.9763888 286.63160038 -170.79950646 272.09836918 -204.9375 243.3125 C-205.5344165 242.81266602 -206.13133301 242.31283203 -206.74633789 241.79785156 C-209.66288147 239.28035132 -211.56985928 237.16066979 -213.1875 233.6875 C-214.1775 233.3575 -215.1675 233.0275 -216.1875 232.6875 C-218.23046875 230.47265625 -218.23046875 230.47265625 -220.375 227.75 C-221.09042969 226.85410156 -221.80585938 225.95820313 -222.54296875 225.03515625 C-224.1875 222.6875 -224.1875 222.6875 -224.1875 220.6875 C-224.8475 220.6875 -225.5075 220.6875 -226.1875 220.6875 C-227.89946092 218.3432469 -229.49600215 216.00130423 -231.0625 213.5625 C-231.49691406 212.89734375 -231.93132812 212.2321875 -232.37890625 211.546875 C-233.24459269 210.22104892 -234.1062683 208.89259517 -234.96386719 207.56152344 C-236.05057314 205.89720682 -237.18241075 204.26255457 -238.3203125 202.6328125 C-240.35725006 199.41973527 -241.76026532 196.21086408 -243.1875 192.6875 C-243.91259766 191.05941406 -243.91259766 191.05941406 -244.65234375 189.3984375 C-248.07791211 181.63866196 -250.92068485 173.87039775 -253.1875 165.6875 C-253.46464844 164.70136719 -253.74179688 163.71523438 -254.02734375 162.69921875 C-257.34374892 150.24207496 -258.55773465 137.86813373 -258.5 125 C-258.49262817 123.036073 -258.49262817 123.036073 -258.48510742 121.0324707 C-258.11230561 90.00580105 -247.97557697 59.17878185 -230.1875 33.6875 C-229.53007812 32.73230469 -228.87265625 31.77710938 -228.1953125 30.79296875 C-217.08776494 15.51528655 -203.18855681 1.75744915 -187.1875 -8.3125 C-186.59549805 -8.6955127 -186.00349609 -9.07852539 -185.39355469 -9.47314453 C-127.72527836 -46.6987366 -53.75058435 -41.34718512 0 0 Z " fill="#FEEC89" transform="translate(355.1875,131.3125)"/>
<path d="M0 0 C0.99 0.99 1.98 1.98 3 3 C2.42507812 3.55300781 1.85015625 4.10601562 1.2578125 4.67578125 C-1.06278947 7.06463622 -3.07384509 9.56489788 -5.125 12.1875 C-11.45118337 19.98077523 -18.68819204 26.3985642 -27 32 C-27.66 31.67 -28.32 31.34 -29 31 C-22.60762568 20.62179228 -15.0659042 12.39860826 -5.25366211 5.22290039 C-2.14288632 3.04981981 -2.14288632 3.04981981 0 0 Z " fill="#FFDB15" transform="translate(142,367)"/>
<path d="M0 0 C0 5.0643145 -3.86262712 8.2291766 -7 12 C-7.93779297 13.14275391 -7.93779297 13.14275391 -8.89453125 14.30859375 C-14.80690091 21.25653121 -21.72670397 26.56170985 -29 32 C-29.66 31.01 -30.32 30.02 -31 29 C-30.26394531 28.28585938 -29.52789062 27.57171875 -28.76953125 26.8359375 C-26.20260556 24.20746352 -23.95151731 21.51400198 -21.6875 18.625 C-15.38865857 10.86857543 -8.41788983 5.31963871 0 0 Z " fill="#FFDB15" transform="translate(398,113)"/>
</svg>
