<?xml version="1.0" encoding="utf-8"?>
<!-- Generator: Adobe Illustrator 15.0.0, SVG Export Plug-In . SVG Version: 6.00 Build 0)  -->
<!DOCTYPE svg PUBLIC "-//W3C//DTD SVG 1.1//EN" "http://www.w3.org/Graphics/SVG/1.1/DTD/svg11.dtd">
<svg version="1.1" id="Layer_1" xmlns="http://www.w3.org/2000/svg" xmlns:xlink="http://www.w3.org/1999/xlink" x="0px" y="0px"
	 width="374px" height="78.224px" viewBox="0 0 374 78.224" enable-background="new 0 0 374 78.224" xml:space="preserve">
<path fill="#172A60" d="M366.727,19.257l-1.078-1.364h2.47l-3.745-4.746h2.114l-4.578-5.832l-4.579,5.832h2.115l-3.747,4.746h2.47
	l-1.075,1.364h-9.161l-3.061-3.876h2.837l-4.303-5.453h2.429l-5.258-6.696l-5.258,6.696h2.43l-2.944,3.73l-4.271-5.414h2.991
	L327.051,0l-6.472,8.244h2.99l-5.296,6.712h3.49l-3.396,4.301h-2.456l-2.102-2.667h2.468l-3.745-4.748h2.114l-4.578-5.832
	l-4.579,5.832h2.115l-3.747,4.748h2.47l-2.104,2.667h-1.854l-1.881-2.385h2.834l-4.301-5.453h2.428l-5.258-6.697l-5.258,6.697h2.429
	l-3.83,4.855l-2.468-3.128h2.115l-4.579-5.832l-4.415,5.622l-3.637-4.607h2.991l-6.474-8.243l-6.472,8.243h2.99l-5.296,6.713h3.49
	l-3.326,4.215h-5.477l-1.885-2.385h2.835l-4.3-5.453h2.426l-5.256-6.697l-5.26,6.697h2.431l-3.83,4.855l-2.47-3.128h2.115
	l-4.579-5.832l-1.764,2.247l-3.801-4.84l-1.163,1.483l-4.805-6.119l-4.993,6.358l-0.63-0.802l-4.58,5.833h2.116l-1.553,1.968
	L216,8.329h2.989l-6.472-8.243l-6.474,8.243h2.989l-5.295,6.713h3.49l-3.326,4.215h-5.479l-1.882-2.385h2.835l-4.301-5.453h2.429
	l-5.258-6.697l-5.259,6.697h2.429l-3.83,4.855l-2.469-3.128h2.116l-4.579-5.832l-4.416,5.622l-3.635-4.607h2.991l-6.472-8.243
	l-6.474,8.243h2.991l-3.8,4.817l-4.056-5.167l-1.924,2.452l-2.447-3.117l-0.743,0.947l-6.418-8.176l-6.472,8.243h2.99l-5.295,6.713
	h3.489l-3.326,4.215h-13.453l-1.883-2.385h2.836l-4.302-5.453h2.428l-5.257-6.697l-5.258,6.697h2.429l-3.831,4.855l-2.469-3.128
	h2.115l-4.579-5.832l-4.416,5.622l-3.635-4.607h2.991l-6.473-8.243l-5.412,6.892l-1.771-2.256l-5.258,6.697h2.43l-3.832,4.855
	l-2.469-3.128h2.116l-4.579-5.832l-4.415,5.622l-3.636-4.607h2.991L64.57,0.086l-6.473,8.243h2.99l-5.296,6.713h3.49l-3.326,4.215
	H42.502l-1.883-2.385h2.835l-4.302-5.453h2.429l-5.258-6.697l-5.258,6.697h2.429l-3.83,4.855l-2.469-3.128h2.115l-4.579-5.832
	l-4.415,5.622l-3.635-4.607h2.99l-6.473-8.243L6.727,8.329h2.991l-5.296,6.713h3.49l-3.326,4.215h-5.152v58.967H376V19.257H366.727z
	 M333.782,14.956l-0.337,0.425h2.838l-1.806,2.286l-2.14-2.711H333.782z M291.897,16.872l-1.882,2.385h-0.6l-1.075-1.364h2.47
	l-0.805-1.021H291.897z M280.733,18.054l-0.126-0.161h0.255L280.733,18.054z M282.138,13.146l-0.894,1.131l-0.894-1.131H282.138z
	 M280.641,15.042l-1.143,1.448l-1.141-1.448H280.641z M219.523,17.218l-0.787-0.996h1.572L219.523,17.218z M248.501,16.872
	l-1.882,2.385h-0.598l-1.075-1.364h2.47l-0.807-1.021H248.501z M226.188,8.329l-0.014,0.021l-0.016-0.021H226.188z M218.771,15.042
	l-0.484,0.611l-0.482-0.611H218.771z M176.659,17.893h0.254l-0.127,0.161L176.659,17.893z M175.877,16.077l-0.817-1.035h1.633
	L175.877,16.077z M162.451,16.607l-1.235-1.565h2.472L162.451,16.607z M187.95,16.872l-1.882,2.385h-0.598l-1.076-1.364h2.47
	l-0.806-1.021H187.95z M178.189,13.146l-0.894,1.131l-0.893-1.131H178.189z M160.779,14.488l-0.533-0.677h1.066L160.779,14.488z
	 M152.613,8.329l-1.437,1.83l-1.445-1.83H152.613z M102.417,17.893h0.254l-0.127,0.161L102.417,17.893z M101.309,16.49l-1.143-1.448
	h2.286L101.309,16.49z M113.708,16.872l-1.882,2.385h-0.598l-1.077-1.364h2.471l-0.807-1.021H113.708z M103.948,13.146l-0.894,1.131
	l-0.894-1.131H103.948z M91.396,8.329L90.96,8.881l-0.433-0.552H91.396z M83.399,16.872l-1.883,2.385h-0.597l-1.077-1.364h2.47
	l-0.807-1.021H83.399z M72.236,18.054l-0.127-0.161h0.254L72.236,18.054z M73.639,13.146l-0.893,1.131l-0.894-1.131H73.639z
	 M72.144,15.042L71,16.49l-1.142-1.448H72.144z M32.028,16.872l-1.883,2.385h-0.597l-1.077-1.364h2.471l-0.806-1.021H32.028z
	 M20.865,18.054l-0.127-0.161h0.255L20.865,18.054z M22.269,13.146l-0.894,1.131l-0.893-1.131H22.269z M20.773,15.042L19.63,16.49
	l-1.143-1.448H20.773z"/>
</svg>
