<?xml version="1.0" encoding="utf-8"?>
<!-- Generator: Adobe Illustrator 15.0.0, SVG Export Plug-In . SVG Version: 6.00 Build 0)  -->
<!DOCTYPE svg PUBLIC "-//W3C//DTD SVG 1.1//EN" "http://www.w3.org/Graphics/SVG/1.1/DTD/svg11.dtd">
<svg version="1.1" id="Layer_1" xmlns="http://www.w3.org/2000/svg" xmlns:xlink="http://www.w3.org/1999/xlink" x="0px" y="0px"
	 width="374px" height="117.519px" viewBox="0 0 374 117.519" enable-background="new 0 0 374 117.519" xml:space="preserve">
<polygon fill="#18214F" points="414.729,51.69 406.734,41.561 413.304,41.561 403.336,28.931 408.965,28.931 396.783,13.415 
	384.603,28.931 390.23,28.931 386.06,34.216 377.396,23.236 384.243,23.236 369.424,4.362 354.608,23.236 361.453,23.236 
	353.094,33.831 348.273,27.723 353.9,27.723 341.719,12.206 329.537,27.723 335.165,27.723 326.752,38.384 322.203,32.619 
	327.833,32.619 315.65,17.104 310.708,23.398 300.507,10.406 288.326,25.922 293.953,25.922 289.785,31.205 281.121,20.227 
	287.967,20.227 273.148,1.353 258.333,20.227 265.177,20.227 256.816,30.821 251.996,24.712 257.624,24.712 245.442,9.196 
	233.262,24.712 238.889,24.712 230.477,35.373 225.928,29.61 231.558,29.61 219.375,14.095 207.199,29.61 212.824,29.61 
	206.575,37.532 202.337,32.161 207.965,32.161 195.784,16.646 183.605,32.161 189.232,32.161 185.064,37.444 176.402,26.466 
	183.245,26.466 168.431,7.593 153.614,26.466 160.459,26.466 152.1,37.061 147.279,30.952 152.907,30.952 140.725,15.436 
	128.544,30.952 134.171,30.952 125.758,41.612 121.211,35.851 126.838,35.851 114.657,20.334 103.693,34.301 97.001,25.82 
	102.629,25.82 90.447,10.305 78.267,25.82 83.894,25.82 79.724,31.104 71.061,20.126 77.906,20.126 63.088,1.252 48.272,20.126 
	55.117,20.126 46.757,30.721 41.937,24.612 47.564,24.612 35.382,9.096 23.202,24.612 28.828,24.612 20.416,35.272 15.868,29.51 
	21.496,29.51 9.314,13.993 -2.866,29.51 2.761,29.51 -7.206,42.139 -0.636,42.139 -8.63,52.27 0.323,52.27 0.323,52.37 
	-2.866,52.37 -2.866,117.519 0.323,117.519 372.58,117.519 376,117.519 376,54.019 391.253,53.582 392.167,51.69 393.983,51.69 
	393.983,59.91 399.585,59.91 399.585,51.69 "/>
</svg>
