<?xml version="1.0" encoding="utf-8"?>
<!-- Generator: Adobe Illustrator 15.0.0, SVG Export Plug-In . SVG Version: 6.00 Build 0)  -->
<!DOCTYPE svg PUBLIC "-//W3C//DTD SVG 1.1//EN" "http://www.w3.org/Graphics/SVG/1.1/DTD/svg11.dtd">
<svg version="1.1" id="Layer_1" xmlns="http://www.w3.org/2000/svg" xmlns:xlink="http://www.w3.org/1999/xlink" x="0px" y="0px"
	 width="100px" height="41.458px" viewBox="0 0 100 41.458" enable-background="new 0 0 100 41.458" xml:space="preserve">
<path opacity="0.8" fill="#FFFFFF" d="M91.141,0H30.834c-4.892,0-8.858,3.967-8.858,8.859c0,0.828,0.122,1.626,0.335,2.386H8.858
	C3.967,11.246,0,15.212,0,20.105c0,4.893,3.967,8.859,8.858,8.859h27.928C36.285,30.074,36,31.302,36,32.599
	c0,4.893,3.966,8.859,8.857,8.859h35.095c4.893,0,8.858-3.967,8.858-8.859s-3.966-8.859-8.858-8.859h-2.715
	c0.501-1.11,0.786-2.337,0.786-3.634c0-0.828-0.122-1.626-0.334-2.386h13.451c4.893,0,8.859-3.967,8.859-8.859S96.033,0,91.141,0z"
	/>
</svg>
