<?xml version="1.0" encoding="utf-8"?>
<!-- Generator: Adobe Illustrator 15.0.0, SVG Export Plug-In . SVG Version: 6.00 Build 0)  -->
<!DOCTYPE svg PUBLIC "-//W3C//DTD SVG 1.1//EN" "http://www.w3.org/Graphics/SVG/1.1/DTD/svg11.dtd">
<svg version="1.1" id="Layer_1" xmlns="http://www.w3.org/2000/svg" xmlns:xlink="http://www.w3.org/1999/xlink" x="0px" y="0px"
	 width="111.096px" height="43px" viewBox="33.652 13.026 111.096 43" enable-background="new 33.652 13.026 111.096 43"
	 xml:space="preserve">
<path opacity="0.8" fill="#FFFFFF" enable-background="new    " d="M135.561,24.69h-21.329c0.222-0.789,0.349-1.616,0.349-2.475
	c-0.001-5.075-4.115-9.189-9.188-9.189H42.841c-5.075,0-9.189,4.114-9.189,9.189c0,5.074,4.114,9.188,9.189,9.188h21.327
	c-0.222,0.789-0.348,1.616-0.348,2.476c0,1.346,0.296,2.619,0.815,3.769h-7.249c-5.074,0-9.188,4.114-9.188,9.188
	c0,5.076,4.114,9.189,9.188,9.189h36.398c5.076,0,9.189-4.112,9.189-9.189c0-1.344-0.295-2.616-0.813-3.769h33.398
	c5.075,0,9.188-4.116,9.188-9.189C144.748,28.802,140.635,24.69,135.561,24.69z"/>
</svg>
