<?xml version="1.0" encoding="utf-8"?>
<!-- Generator: Adobe Illustrator 15.0.0, SVG Export Plug-In . SVG Version: 6.00 Build 0)  -->
<!DOCTYPE svg PUBLIC "-//W3C//DTD SVG 1.1//EN" "http://www.w3.org/Graphics/SVG/1.1/DTD/svg11.dtd">
<svg version="1.1" id="Layer_1" xmlns="http://www.w3.org/2000/svg" xmlns:xlink="http://www.w3.org/1999/xlink" x="0px" y="0px"
	 width="386px" height="213px" viewBox="0 0 386 213" enable-background="new 0 0 386 213" xml:space="preserve">
<circle fill="#FFFFFF" cx="50.925" cy="50.609" r="0.985"/>
<circle fill="#FFFFFF" cx="74.172" cy="58.411" r="1.219"/>
<circle fill="#FFFFFF" cx="122.201" cy="80.377" r="0.985"/>
<circle fill="#FFFFFF" cx="145.375" cy="104.601" r="0.985"/>
<circle fill="#FFFFFF" cx="76.507" cy="151.891" r="0.985"/>
<circle fill="#FFFFFF" cx="163.908" cy="87.233" r="0.985"/>
<circle fill="#FFFFFF" cx="107.296" cy="42.31" r="0.985"/>
<circle fill="#FFFFFF" cx="85.365" cy="32.342" r="0.985"/>
<circle fill="#FFFFFF" cx="102.776" cy="15.024" r="0.985"/>
<circle fill="#FFFFFF" cx="7.857" cy="32.304" r="0.985"/>
<circle fill="#FFFFFF" cx="43.282" cy="30.1" r="1.219"/>
<circle fill="#FFFFFF" cx="61.592" cy="20.657" r="1.219"/>
<circle fill="#FFFFFF" cx="42.297" cy="14.037" r="0.985"/>
<circle fill="#FFFFFF" cx="21.557" cy="83.537" r="0.985"/>
<circle fill="#FFFFFF" cx="144.156" cy="69.455" r="1.219"/>
<circle fill="#FFFFFF" cx="147.405" cy="21.876" r="1.219"/>
<circle fill="#FFFFFF" cx="135.575" cy="44.28" r="1.219"/>
<circle fill="#FFFFFF" cx="119.364" cy="62.714" r="1.219"/>
<circle fill="#FFFFFF" cx="22.542" cy="62.714" r="1.219"/>
<circle fill="#FFFFFF" cx="34.347" cy="145.172" r="1.219"/>
<circle fill="#FFFFFF" cx="189.348" cy="73.759" r="1.219"/>
<circle fill="#FFFFFF" cx="240.23" cy="54.755" r="0.985"/>
<circle fill="#FFFFFF" cx="236.311" cy="83.538" r="0.985"/>
<circle fill="#FFFFFF" cx="263.478" cy="62.557" r="1.219"/>
<circle fill="#FFFFFF" cx="233.431" cy="20.657" r="1.219"/>
<circle fill="#FFFFFF" cx="259.111" cy="85.508" r="1.219"/>
<circle fill="#FFFFFF" cx="311.506" cy="84.523" r="0.985"/>
<circle fill="#FFFFFF" cx="338.713" cy="44.28" r="0.985"/>
<circle fill="#FFFFFF" cx="353.213" cy="91.379" r="0.985"/>
<circle fill="#FFFFFF" cx="296.601" cy="46.456" r="0.985"/>
<circle fill="#FFFFFF" cx="273.685" cy="19.439" r="0.985"/>
<circle fill="#FFFFFF" cx="274.67" cy="36.488" r="0.985"/>
<circle fill="#FFFFFF" cx="308.669" cy="23.095" r="0.985"/>
<circle fill="#FFFFFF" cx="333.461" cy="73.601" r="1.219"/>
<circle fill="#FFFFFF" cx="331.556" cy="199.187" r="1.219"/>
<circle fill="#FFFFFF" cx="308.669" cy="66.86" r="1.219"/>
<circle fill="#FFFFFF" cx="297.586" cy="193.625" r="1.219"/>
<circle fill="#FFFFFF" cx="290.834" cy="76.686" r="1.219"/>
<circle fill="#FFFFFF" cx="378.653" cy="77.905" r="1.219"/>
<circle fill="#FFFFFF" cx="219.558" cy="130.66" r="0.985"/>
<circle fill="#FFFFFF" cx="242.806" cy="138.462" r="1.219"/>
<circle fill="#FFFFFF" cx="290.834" cy="160.428" r="0.985"/>
<circle fill="#FFFFFF" cx="241.215" cy="162.113" r="0.985"/>
<circle fill="#FFFFFF" cx="332.541" cy="167.284" r="0.985"/>
<circle fill="#FFFFFF" cx="275.928" cy="122.361" r="0.985"/>
<circle fill="#FFFFFF" cx="253.998" cy="112.393" r="0.985"/>
<circle fill="#FFFFFF" cx="192.987" cy="103.616" r="0.985"/>
<circle fill="#FFFFFF" cx="312.789" cy="149.506" r="1.218"/>
<circle fill="#FFFFFF" cx="276.913" cy="150.671" r="1.219"/>
<circle fill="#FFFFFF" cx="245.242" cy="201.313" r="1.219"/>
<circle fill="#FFFFFF" cx="260.33" cy="177.11" r="1.219"/>
<circle fill="#FFFFFF" cx="357.981" cy="153.81" r="1.219"/>
</svg>
